<?xml version="1.0" encoding="utf-8"?>
<!-- Generator: Adobe Illustrator 26.3.1, SVG Export Plug-In . SVG Version: 6.00 Build 0)  -->
<svg version="1.1" xmlns="http://www.w3.org/2000/svg" xmlns:xlink="http://www.w3.org/1999/xlink" x="0px" y="0px"
	 viewBox="0 0 2000 2000" style="enable-background:new 0 0 2000 2000;" xml:space="preserve">
<style type="text/css">
	.st0{fill:none;}
	.st1{fill:none;stroke:#CF3F2E;stroke-width:0.75;stroke-linejoin:round;}
	.st2{fill:none;stroke:#000000;stroke-width:0.75;stroke-linejoin:round;}
	.st3{fill:#273A60;}
	.st4{fill:#FFFFFF;}
	.st5{font-family:'HusqvarnaGothic-Bold';}
	.st6{font-size:65.9392px;}
	.st7{letter-spacing:3;}
	.st8{display:none;}
	.st9{display:inline;}
	.st10{opacity:0.5;fill:url(#SVGID_1_);}
	.st11{fill:#F25420;}
	.st12{opacity:0.5;fill:url(#SVGID_00000085970029090746907900000014167201592271301529_);}
	.st13{opacity:0.5;fill:url(#SVGID_00000000930530116990158670000009417393277011455916_);}
	.st14{opacity:0.5;fill:url(#SVGID_00000040533230587750690110000005551665177703967115_);}
</style>
<pattern  width="144" height="144" patternUnits="userSpaceOnUse" id="Diagonala_linjer_3" viewBox="216.27 -360.26 144 144" style="overflow:visible;">
	<g>
		<rect x="216.27" y="-360.26" class="st0" width="144" height="144"/>
		<g>
			<line class="st1" x1="288.27" y1="-164.83" x2="411.69" y2="-288.26"/>
			<line class="st1" x1="288.27" y1="-144.26" x2="432.27" y2="-288.26"/>
			<line class="st1" x1="288.27" y1="-123.69" x2="452.84" y2="-288.26"/>
			<line class="st1" x1="288.27" y1="-103.12" x2="473.41" y2="-288.26"/>
			<line class="st1" x1="288.27" y1="-82.55" x2="493.98" y2="-288.26"/>
			<line class="st1" x1="288.27" y1="-61.98" x2="514.55" y2="-288.26"/>
			<line class="st1" x1="288.27" y1="-41.4" x2="535.12" y2="-288.26"/>
			<line class="st1" x1="288.27" y1="-20.83" x2="555.69" y2="-288.26"/>
			<line class="st1" x1="288.27" y1="-0.27" x2="576.27" y2="-288.26"/>
			<line class="st1" x1="308.84" y1="-0.27" x2="576.27" y2="-267.69"/>
			<line class="st1" x1="329.41" y1="-0.27" x2="576.27" y2="-247.12"/>
			<line class="st1" x1="349.98" y1="-0.27" x2="576.27" y2="-226.55"/>
		</g>
		<g>
			<line class="st1" x1="144.27" y1="-164.83" x2="267.69" y2="-288.26"/>
			<line class="st1" x1="144.27" y1="-144.26" x2="288.27" y2="-288.26"/>
			<line class="st1" x1="144.27" y1="-123.69" x2="308.84" y2="-288.26"/>
			<line class="st1" x1="144.27" y1="-103.12" x2="329.41" y2="-288.26"/>
			<line class="st1" x1="144.27" y1="-82.55" x2="349.98" y2="-288.26"/>
			<line class="st1" x1="144.27" y1="-61.98" x2="370.55" y2="-288.26"/>
			<line class="st1" x1="144.27" y1="-41.4" x2="391.12" y2="-288.26"/>
			<line class="st1" x1="144.27" y1="-20.83" x2="411.69" y2="-288.26"/>
			<line class="st1" x1="144.27" y1="-0.27" x2="432.27" y2="-288.26"/>
			<line class="st1" x1="164.84" y1="-0.27" x2="432.27" y2="-267.69"/>
			<line class="st1" x1="185.41" y1="-0.27" x2="432.27" y2="-247.12"/>
			<line class="st1" x1="205.98" y1="-0.27" x2="432.27" y2="-226.55"/>
		</g>
		<g>
			<line class="st1" x1="0.27" y1="-61.98" x2="226.55" y2="-288.26"/>
			<line class="st1" x1="0.27" y1="-41.4" x2="247.12" y2="-288.26"/>
			<line class="st1" x1="0.27" y1="-20.83" x2="267.69" y2="-288.26"/>
			<line class="st1" x1="0.27" y1="-0.27" x2="288.27" y2="-288.26"/>
			<line class="st1" x1="20.84" y1="-0.27" x2="288.27" y2="-267.69"/>
			<line class="st1" x1="41.41" y1="-0.27" x2="288.27" y2="-247.12"/>
			<line class="st1" x1="61.98" y1="-0.27" x2="288.27" y2="-226.55"/>
		</g>
		<g>
			<line class="st1" x1="288.27" y1="-308.83" x2="411.69" y2="-432.26"/>
			<line class="st1" x1="288.27" y1="-288.26" x2="432.27" y2="-432.26"/>
			<line class="st1" x1="288.27" y1="-267.69" x2="452.84" y2="-432.26"/>
			<line class="st1" x1="288.27" y1="-247.12" x2="473.41" y2="-432.26"/>
			<line class="st1" x1="288.27" y1="-226.55" x2="493.98" y2="-432.26"/>
			<line class="st1" x1="288.27" y1="-205.98" x2="514.55" y2="-432.26"/>
			<line class="st1" x1="288.27" y1="-185.4" x2="535.12" y2="-432.26"/>
			<line class="st1" x1="288.27" y1="-164.83" x2="555.69" y2="-432.26"/>
			<line class="st1" x1="288.27" y1="-144.27" x2="576.27" y2="-432.26"/>
			<line class="st1" x1="308.84" y1="-144.27" x2="576.27" y2="-411.69"/>
			<line class="st1" x1="329.41" y1="-144.27" x2="576.27" y2="-391.12"/>
			<line class="st1" x1="349.98" y1="-144.27" x2="576.27" y2="-370.55"/>
		</g>
		<g>
			<line class="st1" x1="144.27" y1="-308.83" x2="267.69" y2="-432.26"/>
			<line class="st1" x1="144.27" y1="-288.26" x2="288.27" y2="-432.26"/>
			<line class="st1" x1="144.27" y1="-267.69" x2="308.84" y2="-432.26"/>
			<line class="st1" x1="144.27" y1="-247.12" x2="329.41" y2="-432.26"/>
			<line class="st1" x1="144.27" y1="-226.55" x2="349.98" y2="-432.26"/>
			<line class="st1" x1="144.27" y1="-205.98" x2="370.55" y2="-432.26"/>
			<line class="st1" x1="144.27" y1="-185.4" x2="391.12" y2="-432.26"/>
			<line class="st1" x1="144.27" y1="-164.83" x2="411.69" y2="-432.26"/>
			<line class="st1" x1="144.27" y1="-144.27" x2="432.27" y2="-432.26"/>
			<line class="st1" x1="164.84" y1="-144.27" x2="432.27" y2="-411.69"/>
			<line class="st1" x1="185.41" y1="-144.27" x2="432.27" y2="-391.12"/>
			<line class="st1" x1="205.98" y1="-144.27" x2="432.27" y2="-370.55"/>
			<line class="st1" x1="226.55" y1="-144.27" x2="432.27" y2="-349.98"/>
			<line class="st1" x1="247.12" y1="-144.27" x2="432.27" y2="-329.4"/>
			<line class="st1" x1="267.69" y1="-144.27" x2="432.27" y2="-308.83"/>
			<line class="st1" x1="288.27" y1="-144.27" x2="432.27" y2="-288.26"/>
			<line class="st1" x1="308.84" y1="-144.27" x2="432.27" y2="-267.69"/>
		</g>
		<g>
			<line class="st1" x1="0.27" y1="-205.98" x2="226.55" y2="-432.26"/>
			<line class="st1" x1="0.27" y1="-185.4" x2="247.12" y2="-432.26"/>
			<line class="st1" x1="0.27" y1="-164.83" x2="267.69" y2="-432.26"/>
			<line class="st1" x1="0.27" y1="-144.27" x2="288.27" y2="-432.26"/>
			<line class="st1" x1="20.84" y1="-144.27" x2="288.27" y2="-411.69"/>
			<line class="st1" x1="41.41" y1="-144.27" x2="288.27" y2="-391.12"/>
			<line class="st1" x1="61.98" y1="-144.27" x2="288.27" y2="-370.55"/>
			<line class="st1" x1="82.55" y1="-144.27" x2="288.27" y2="-349.98"/>
			<line class="st1" x1="103.12" y1="-144.27" x2="288.27" y2="-329.4"/>
			<line class="st1" x1="123.69" y1="-144.27" x2="288.27" y2="-308.83"/>
			<line class="st1" x1="144.27" y1="-144.27" x2="288.27" y2="-288.26"/>
			<line class="st1" x1="164.84" y1="-144.27" x2="288.27" y2="-267.69"/>
		</g>
		<g>
			<line class="st1" x1="288.27" y1="-349.98" x2="514.55" y2="-576.26"/>
			<line class="st1" x1="288.27" y1="-329.4" x2="535.12" y2="-576.26"/>
			<line class="st1" x1="288.27" y1="-308.83" x2="555.69" y2="-576.26"/>
			<line class="st1" x1="288.27" y1="-288.27" x2="576.27" y2="-576.26"/>
			<line class="st1" x1="308.84" y1="-288.27" x2="576.27" y2="-555.69"/>
			<line class="st1" x1="329.41" y1="-288.27" x2="576.27" y2="-535.12"/>
			<line class="st1" x1="349.98" y1="-288.27" x2="576.27" y2="-514.55"/>
		</g>
		<g>
			<line class="st1" x1="144.27" y1="-349.98" x2="370.55" y2="-576.26"/>
			<line class="st1" x1="144.27" y1="-329.4" x2="391.12" y2="-576.26"/>
			<line class="st1" x1="144.27" y1="-308.83" x2="411.69" y2="-576.26"/>
			<line class="st1" x1="144.27" y1="-288.27" x2="432.27" y2="-576.26"/>
			<line class="st1" x1="164.84" y1="-288.27" x2="432.27" y2="-555.69"/>
			<line class="st1" x1="185.41" y1="-288.27" x2="432.27" y2="-535.12"/>
			<line class="st1" x1="205.98" y1="-288.27" x2="432.27" y2="-514.55"/>
			<line class="st1" x1="226.55" y1="-288.27" x2="432.27" y2="-493.98"/>
			<line class="st1" x1="247.12" y1="-288.27" x2="432.27" y2="-473.4"/>
			<line class="st1" x1="267.69" y1="-288.27" x2="432.27" y2="-452.83"/>
			<line class="st1" x1="288.27" y1="-288.27" x2="432.27" y2="-432.26"/>
			<line class="st1" x1="308.84" y1="-288.27" x2="432.27" y2="-411.69"/>
		</g>
		<g>
			<line class="st1" x1="0.27" y1="-349.98" x2="226.55" y2="-576.26"/>
			<line class="st1" x1="0.27" y1="-329.4" x2="247.12" y2="-576.26"/>
			<line class="st1" x1="0.27" y1="-308.83" x2="267.69" y2="-576.26"/>
			<line class="st1" x1="0.27" y1="-288.27" x2="288.27" y2="-576.26"/>
			<line class="st1" x1="20.84" y1="-288.27" x2="288.27" y2="-555.69"/>
			<line class="st1" x1="41.41" y1="-288.27" x2="288.27" y2="-535.12"/>
			<line class="st1" x1="61.98" y1="-288.27" x2="288.27" y2="-514.55"/>
			<line class="st1" x1="82.55" y1="-288.27" x2="288.27" y2="-493.98"/>
			<line class="st1" x1="103.12" y1="-288.27" x2="288.27" y2="-473.4"/>
			<line class="st1" x1="123.69" y1="-288.27" x2="288.27" y2="-452.83"/>
			<line class="st1" x1="144.27" y1="-288.27" x2="288.27" y2="-432.26"/>
			<line class="st1" x1="164.84" y1="-288.27" x2="288.27" y2="-411.69"/>
		</g>
	</g>
</pattern>
<pattern  width="144" height="144" patternUnits="userSpaceOnUse" id="Diagonala_linjer_3_kopia" viewBox="216.27 -360.26 144 144" style="overflow:visible;">
	<g>
		<rect x="216.27" y="-360.26" class="st0" width="144" height="144"/>
		<g>
			<line class="st2" x1="288.27" y1="-164.83" x2="411.69" y2="-288.26"/>
			<line class="st2" x1="288.27" y1="-144.26" x2="432.27" y2="-288.26"/>
			<line class="st2" x1="288.27" y1="-123.69" x2="452.84" y2="-288.26"/>
			<line class="st2" x1="288.27" y1="-103.12" x2="473.41" y2="-288.26"/>
			<line class="st2" x1="288.27" y1="-82.55" x2="493.98" y2="-288.26"/>
			<line class="st2" x1="288.27" y1="-61.98" x2="514.55" y2="-288.26"/>
			<line class="st2" x1="288.27" y1="-41.4" x2="535.12" y2="-288.26"/>
			<line class="st2" x1="288.27" y1="-20.83" x2="555.69" y2="-288.26"/>
			<line class="st2" x1="288.27" y1="-0.27" x2="576.27" y2="-288.26"/>
			<line class="st2" x1="308.84" y1="-0.27" x2="576.27" y2="-267.69"/>
			<line class="st2" x1="329.41" y1="-0.27" x2="576.27" y2="-247.12"/>
			<line class="st2" x1="349.98" y1="-0.27" x2="576.27" y2="-226.55"/>
		</g>
		<g>
			<line class="st2" x1="144.27" y1="-164.83" x2="267.69" y2="-288.26"/>
			<line class="st2" x1="144.27" y1="-144.26" x2="288.27" y2="-288.26"/>
			<line class="st2" x1="144.27" y1="-123.69" x2="308.84" y2="-288.26"/>
			<line class="st2" x1="144.27" y1="-103.12" x2="329.41" y2="-288.26"/>
			<line class="st2" x1="144.27" y1="-82.55" x2="349.98" y2="-288.26"/>
			<line class="st2" x1="144.27" y1="-61.98" x2="370.55" y2="-288.26"/>
			<line class="st2" x1="144.27" y1="-41.4" x2="391.12" y2="-288.26"/>
			<line class="st2" x1="144.27" y1="-20.83" x2="411.69" y2="-288.26"/>
			<line class="st2" x1="144.27" y1="-0.27" x2="432.27" y2="-288.26"/>
			<line class="st2" x1="164.84" y1="-0.27" x2="432.27" y2="-267.69"/>
			<line class="st2" x1="185.41" y1="-0.27" x2="432.27" y2="-247.12"/>
			<line class="st2" x1="205.98" y1="-0.27" x2="432.27" y2="-226.55"/>
		</g>
		<g>
			<line class="st2" x1="0.27" y1="-61.98" x2="226.55" y2="-288.26"/>
			<line class="st2" x1="0.27" y1="-41.4" x2="247.12" y2="-288.26"/>
			<line class="st2" x1="0.27" y1="-20.83" x2="267.69" y2="-288.26"/>
			<line class="st2" x1="0.27" y1="-0.27" x2="288.27" y2="-288.26"/>
			<line class="st2" x1="20.84" y1="-0.27" x2="288.27" y2="-267.69"/>
			<line class="st2" x1="41.41" y1="-0.27" x2="288.27" y2="-247.12"/>
			<line class="st2" x1="61.98" y1="-0.27" x2="288.27" y2="-226.55"/>
		</g>
		<g>
			<line class="st2" x1="288.27" y1="-308.83" x2="411.69" y2="-432.26"/>
			<line class="st2" x1="288.27" y1="-288.26" x2="432.27" y2="-432.26"/>
			<line class="st2" x1="288.27" y1="-267.69" x2="452.84" y2="-432.26"/>
			<line class="st2" x1="288.27" y1="-247.12" x2="473.41" y2="-432.26"/>
			<line class="st2" x1="288.27" y1="-226.55" x2="493.98" y2="-432.26"/>
			<line class="st2" x1="288.27" y1="-205.98" x2="514.55" y2="-432.26"/>
			<line class="st2" x1="288.27" y1="-185.4" x2="535.12" y2="-432.26"/>
			<line class="st2" x1="288.27" y1="-164.83" x2="555.69" y2="-432.26"/>
			<line class="st2" x1="288.27" y1="-144.27" x2="576.27" y2="-432.26"/>
			<line class="st2" x1="308.84" y1="-144.27" x2="576.27" y2="-411.69"/>
			<line class="st2" x1="329.41" y1="-144.27" x2="576.27" y2="-391.12"/>
			<line class="st2" x1="349.98" y1="-144.27" x2="576.27" y2="-370.55"/>
		</g>
		<g>
			<line class="st2" x1="144.27" y1="-308.83" x2="267.69" y2="-432.26"/>
			<line class="st2" x1="144.27" y1="-288.26" x2="288.27" y2="-432.26"/>
			<line class="st2" x1="144.27" y1="-267.69" x2="308.84" y2="-432.26"/>
			<line class="st2" x1="144.27" y1="-247.12" x2="329.41" y2="-432.26"/>
			<line class="st2" x1="144.27" y1="-226.55" x2="349.98" y2="-432.26"/>
			<line class="st2" x1="144.27" y1="-205.98" x2="370.55" y2="-432.26"/>
			<line class="st2" x1="144.27" y1="-185.4" x2="391.12" y2="-432.26"/>
			<line class="st2" x1="144.27" y1="-164.83" x2="411.69" y2="-432.26"/>
			<line class="st2" x1="144.27" y1="-144.27" x2="432.27" y2="-432.26"/>
			<line class="st2" x1="164.84" y1="-144.27" x2="432.27" y2="-411.69"/>
			<line class="st2" x1="185.41" y1="-144.27" x2="432.27" y2="-391.12"/>
			<line class="st2" x1="205.98" y1="-144.27" x2="432.27" y2="-370.55"/>
			<line class="st2" x1="226.55" y1="-144.27" x2="432.27" y2="-349.98"/>
			<line class="st2" x1="247.12" y1="-144.27" x2="432.27" y2="-329.4"/>
			<line class="st2" x1="267.69" y1="-144.27" x2="432.27" y2="-308.83"/>
			<line class="st2" x1="288.27" y1="-144.27" x2="432.27" y2="-288.26"/>
			<line class="st2" x1="308.84" y1="-144.27" x2="432.27" y2="-267.69"/>
		</g>
		<g>
			<line class="st2" x1="0.27" y1="-205.98" x2="226.55" y2="-432.26"/>
			<line class="st2" x1="0.27" y1="-185.4" x2="247.12" y2="-432.26"/>
			<line class="st2" x1="0.27" y1="-164.83" x2="267.69" y2="-432.26"/>
			<line class="st2" x1="0.27" y1="-144.27" x2="288.27" y2="-432.26"/>
			<line class="st2" x1="20.84" y1="-144.27" x2="288.27" y2="-411.69"/>
			<line class="st2" x1="41.41" y1="-144.27" x2="288.27" y2="-391.12"/>
			<line class="st2" x1="61.98" y1="-144.27" x2="288.27" y2="-370.55"/>
			<line class="st2" x1="82.55" y1="-144.27" x2="288.27" y2="-349.98"/>
			<line class="st2" x1="103.12" y1="-144.27" x2="288.27" y2="-329.4"/>
			<line class="st2" x1="123.69" y1="-144.27" x2="288.27" y2="-308.83"/>
			<line class="st2" x1="144.27" y1="-144.27" x2="288.27" y2="-288.26"/>
			<line class="st2" x1="164.84" y1="-144.27" x2="288.27" y2="-267.69"/>
		</g>
		<g>
			<line class="st2" x1="288.27" y1="-349.98" x2="514.55" y2="-576.26"/>
			<line class="st2" x1="288.27" y1="-329.4" x2="535.12" y2="-576.26"/>
			<line class="st2" x1="288.27" y1="-308.83" x2="555.69" y2="-576.26"/>
			<line class="st2" x1="288.27" y1="-288.27" x2="576.27" y2="-576.26"/>
			<line class="st2" x1="308.84" y1="-288.27" x2="576.27" y2="-555.69"/>
			<line class="st2" x1="329.41" y1="-288.27" x2="576.27" y2="-535.12"/>
			<line class="st2" x1="349.98" y1="-288.27" x2="576.27" y2="-514.55"/>
		</g>
		<g>
			<line class="st2" x1="144.27" y1="-349.98" x2="370.55" y2="-576.26"/>
			<line class="st2" x1="144.27" y1="-329.4" x2="391.12" y2="-576.26"/>
			<line class="st2" x1="144.27" y1="-308.83" x2="411.69" y2="-576.26"/>
			<line class="st2" x1="144.27" y1="-288.27" x2="432.27" y2="-576.26"/>
			<line class="st2" x1="164.84" y1="-288.27" x2="432.27" y2="-555.69"/>
			<line class="st2" x1="185.41" y1="-288.27" x2="432.27" y2="-535.12"/>
			<line class="st2" x1="205.98" y1="-288.27" x2="432.27" y2="-514.55"/>
			<line class="st2" x1="226.55" y1="-288.27" x2="432.27" y2="-493.98"/>
			<line class="st2" x1="247.12" y1="-288.27" x2="432.27" y2="-473.4"/>
			<line class="st2" x1="267.69" y1="-288.27" x2="432.27" y2="-452.83"/>
			<line class="st2" x1="288.27" y1="-288.27" x2="432.27" y2="-432.26"/>
			<line class="st2" x1="308.84" y1="-288.27" x2="432.27" y2="-411.69"/>
		</g>
		<g>
			<line class="st2" x1="0.27" y1="-349.98" x2="226.55" y2="-576.26"/>
			<line class="st2" x1="0.27" y1="-329.4" x2="247.12" y2="-576.26"/>
			<line class="st2" x1="0.27" y1="-308.83" x2="267.69" y2="-576.26"/>
			<line class="st2" x1="0.27" y1="-288.27" x2="288.27" y2="-576.26"/>
			<line class="st2" x1="20.84" y1="-288.27" x2="288.27" y2="-555.69"/>
			<line class="st2" x1="41.41" y1="-288.27" x2="288.27" y2="-535.12"/>
			<line class="st2" x1="61.98" y1="-288.27" x2="288.27" y2="-514.55"/>
			<line class="st2" x1="82.55" y1="-288.27" x2="288.27" y2="-493.98"/>
			<line class="st2" x1="103.12" y1="-288.27" x2="288.27" y2="-473.4"/>
			<line class="st2" x1="123.69" y1="-288.27" x2="288.27" y2="-452.83"/>
			<line class="st2" x1="144.27" y1="-288.27" x2="288.27" y2="-432.26"/>
			<line class="st2" x1="164.84" y1="-288.27" x2="288.27" y2="-411.69"/>
		</g>
	</g>
</pattern>
<g id="_x33_33_Symbols">
	<g id="_x3C_Layer_x3E__Logo__x26__Anniversary_Symbol_tag">
		<g id="_x3C_Group_x3E__Logo__x26__333_Anniversary_Symbol_tag">
			<g id="_x3C_Group_x3E__333_Anniversary_Symbol_tag">
				
					<rect id="_x3C_Rectangle_x3E__Background" x="458.15" y="1359.7" transform="matrix(-1 -1.224647e-16 1.224647e-16 -1 2000 3109.6997)" class="st3" width="1083.71" height="390.3"/>
				<g id="_x3C_Group_x3E__Symbol__x26__Text">
					<rect x="1039.95" y="1473.34" class="st0" width="339.28" height="163.1"/>
					<text transform="matrix(1 0 0 1 1039.9463 1519.4941)"><tspan x="0" y="0" class="st4 st5 st6 st7">years of</tspan><tspan x="0" y="81.64" class="st4 st5 st6 st7">innova</tspan><tspan x="224.46" y="81.64" class="st4 st5 st6 st7">-</tspan></text>
					<g>
						<path id="_x3C_Bana_x3E__Three_00000117653584697203142910000017781149352651133614_" class="st4" d="M861.23,1495.76v-18.86
							H748.11v18.89h86.39l-32.23,32.23l0.1,0.1c-0.03,0-0.06,0-0.1,0V1547c19.48,0,35.27,15.79,35.27,35.27
							c0,19.48-15.79,35.27-35.27,35.27c-19.48,0-35.27-15.79-35.27-35.27h-18.89c0,29.91,24.25,54.16,54.16,54.16
							c29.91,0,54.16-24.25,54.16-54.16c0-22.09-13.23-41.08-32.2-49.51l36.98-36.98h0.02v-0.02V1495.76L861.23,1495.76z"/>
						<path id="_x3C_Bana_x3E__Three_00000077291174584911621100000001857821785487627665_" class="st4" d="M991.06,1495.79v-0.02
							l0.01-0.01l-0.01-0.01v-18.86H877.95v18.89h86.39l-32.23,32.23l0.1,0.1c-0.03,0-0.06,0-0.1,0V1547
							c19.48,0,35.27,15.79,35.27,35.27c0,19.48-15.79,35.27-35.27,35.27c-19.48,0-35.27-15.79-35.27-35.27h-18.89
							c0,29.91,24.25,54.16,54.16,54.16s54.16-24.25,54.16-54.16c0-22.09-13.23-41.08-32.2-49.51l36.98-36.98H991.06z"/>
						<path id="_x3C_Bana_x3E__Three_00000052072344588053481880000017861763739311677353_" class="st4" d="M731.39,1495.76v-18.86
							H618.27v18.89h86.39l-32.23,32.23l0.1,0.1c-0.03,0-0.06,0-0.1,0V1547c19.48,0,35.27,15.79,35.27,35.27
							c0,19.48-15.79,35.27-35.27,35.27s-35.27-15.79-35.27-35.27h-18.89c0,29.91,24.25,54.16,54.16,54.16s54.16-24.25,54.16-54.16
							c0-22.09-13.23-41.08-32.2-49.51l36.98-36.98h0.02v-0.02V1495.76L731.39,1495.76z"/>
					</g>
				</g>
			</g>
			<g id="_x3C_Group_x3E__Husqvarna_Logo">
				<g>
					<rect x="458.15" y="250" class="st3" width="1083.71" height="1083.71"/>
				</g>
				<g>
					<g>
						<path class="st4" d="M999.32,840.44c38.85,0,51.23,0.01,70.48-5.23c6.64-2.3,18.59-5.56,27.23-18.99
							c15.92-26.84,15.92-77.24,15.92-101.46c0-24.23,0-67.11-15.92-93.63c-8.64-13.75-20.43-17.53-27.23-19.31
							c-19.66-5.14-32.28-4.84-70.48-4.92h0.03c-38.2,0.08-50.81-0.23-70.46,4.92c-6.81,1.78-18.6,5.56-27.23,19.31
							c-15.93,26.52-15.93,69.4-15.93,93.63c0,24.22,0,74.62,15.93,101.46c8.63,13.42,20.59,16.69,27.23,18.99
							c19.24,5.24,31.63,5.23,70.46,5.23H999.32z M999.39,496.72c16.93,0,27.97,2.94,32.6,3.92c-2.32,21.27-1.64,38.32,0,43.23
							c5.65,16.37,37.74,24,50.69,16.47c14.28-8.5,11-34.31,11-51.33c0,0,21.04,4.9,33.94,9.66c10.47,3.87,25.92,11.43,25.92,11.43
							c3.06,21.54,0.15,53.39-21.42,64.19c16.26,16.03,21.72,35.01,28.71,70.04c5.63,31.42,4.31,53.35,3.96,71.67
							c-1.65,24.89-1.65,38.31-7.62,60.9c-8.62,25.84-13.73,37.98-31.21,55.94c-35.47,36.51-93.28,34.36-126.56,34.34
							c-33.28,0.02-91.09,2.16-126.57-34.34c-17.49-17.96-22.58-30.1-31.21-55.94c-5.96-22.59-5.96-36.01-7.62-60.9
							c-0.34-18.32-1.67-40.25,3.98-71.67c6.96-35.03,12.42-54.01,28.7-70.04c-21.58-10.8-24.48-42.65-21.43-64.19
							c0,0,15.46-7.56,25.93-11.43c12.89-4.76,33.93-9.66,33.93-9.66c0,17.02-3.28,42.83,11,51.33
							c12.95,7.53,45.03-0.09,50.68-16.47c1.67-4.91,2.33-21.96,0-43.23C971.43,499.66,982.45,496.72,999.39,496.72"/>
						<path class="st4" d="M999.41,731.94c33.2,0,32.49,0.02,32.49,10.49v65.96h45.16V625.7h-45.16v54.85
							c0,10.8,0.7,10.77-32.49,10.77h0.02c-33.18,0-32.49,0.03-32.49-10.77V625.7H921.8V808.4h45.14v-65.96
							c0-10.47-0.7-10.49,32.49-10.49H999.41z"/>
					</g>
					<g>
						<path class="st4" d="M1353.47,934.69h1.92c1.89,0,3.69-0.18,3.69-2.11c0-1.84-1.5-1.96-3.46-1.96h-2.15V934.69z
							 M1360.76,932.46c0,1.1-0.56,2.09-1.45,2.64c-0.56,0.35-1.11,0.46-1.97,0.58c1.59,0.58,1.99,0.93,3.86,5.13h-1.75
							c-1.94-4.2-2.44-4.93-5.31-4.93h-0.68v4.93h-1.45v-11.35h4.81C1360.76,929.45,1360.76,932.14,1360.76,932.46 M1356.48,925.54
							c-5.35,0-9.65,4.22-9.65,9.47s4.3,9.47,9.65,9.47c5.33,0,9.65-4.22,9.65-9.47S1361.81,925.54,1356.48,925.54 M1356.48,945.81
							c-6.08,0-11-4.82-11-10.8c0-5.96,4.93-10.8,11-10.8s11,4.84,11,10.8C1367.48,940.98,1362.56,945.81,1356.48,945.81"/>
						<path class="st4" d="M824.02,945.22h-19.83v47.22c0,13.36-5.44,20.13-16.61,20.13c-4.34,0-7.54-1.7-9.8-3.92
							c-2.84-2.82-4.24-7.5-4.24-14.32v-49.12h-19.7v50.74c0,11.17,2.58,19.16,7.93,24.42c5.1,5.03,11.32,7.47,21.62,7.47
							c7.2,0,16.01-4.82,21.07-11.17v9.05h19.57V945.22z"/>
						<path class="st4" d="M1132.59,966.91c0-6.01-2.03-11.08-6.05-15.04c-5.67-5.59-13.77-8.86-25.48-8.8
							c-11.71,0.05-31.49,2.42-33.77,24.35h19.82c-0.27-10.23,12.92-9.33,12.92-9.33c4.22,0,8.07,1.31,10.87,3.52
							c1.72,1.34,2.86,3.43,3,6.82c0.22,5.45-2.44,8.08-20.99,9.85c-14.33,1.36-31.4,5.18-31.4,25.47c0,6.46,2.23,12.09,6.47,16.27
							c5.14,5.05,12.87,7.83,21.79,7.83c11.83,0,18.66-2.91,24.73-9.61l0.96,7.47h19.04v-3.01c-2.46-1.91-1.92-9.91-1.92-9.91
							V966.91z M1081.21,1003.13c-0.52-6.05,3.05-10.39,12.4-11.99c2.45-0.47,4.97-0.7,7.39-1.06c3.7-0.55,8.12-1.56,11.89-4.07
							v12.34c0,9.98-10.08,13.72-17.43,13.6C1088.11,1011.85,1081.74,1009.17,1081.21,1003.13"/>
						<path class="st4" d="M985.3,1047.51V945.27l-18.8-0.05v10.07c-5.07-6.89-12.14-12.22-22.6-12.22
							c-23.57,0-37.26,16.41-37.26,42.83c0,13.46,4.33,25.45,11.86,32.89c6.09,6.01,13.01,9.06,22.47,9.06
							c10.7,0,18.54-4.85,24.5-12.06v31.76L985.3,1047.51z M946.32,1011.95c-5.55,0-9.18-1.74-12.67-5.18
							c-4.72-4.65-7.3-12.23-7.3-21.36c0-8.72,2.83-16.5,7.78-21.37c3.56-3.52,7.04-5.3,12.19-5.3c11.55,0,17.64,7.29,19.43,20.53
							c0.25,2,0.37,9.33,0.25,10.7C964.7,1004.14,958.52,1011.95,946.32,1011.95"/>
						<polygon class="st4" points="654.44,1025.72 675.92,1025.72 675.92,977.95 720.99,977.95 720.99,1025.72 742.49,1025.72 
							742.49,918.3 720.99,918.3 720.99,959.41 675.92,959.41 675.92,918.3 654.44,918.3 						"/>
						<path class="st4" d="M868.03,1012.32c-8.46,0.22-15.07-3.38-16.31-10.63h-19.95c0.94,20.36,21.67,26.47,36.01,26.17
							c14.33-0.31,20.82-3.63,27.25-9.96c4.49-4.43,6.77-10.02,6.77-16.66c0-15.7-12.1-20.85-25.86-24.07l-4.33-0.97
							c-10.69-2.06-19.48-4.17-18.97-10.26c0.51-6.1,7.21-7.42,12.46-7.58c5.24-0.15,9.64,0.68,12.76,6.87h20.56
							c-2.05-15.61-16.61-22.37-32.06-22.15c-15.19,0.22-33.25,6.16-33.25,23.48c0,16.32,11.47,21.27,25.24,24.2
							c1.85,0.42,3.73,0.81,5.54,1.19c10.29,2.14,18.02,4.16,18.18,10.85C882.26,1009.49,876.52,1012.12,868.03,1012.32"/>
						<polygon class="st4" points="1066.76,945.22 1046.25,945.22 1028.69,1007.14 1010.5,945.22 989.1,945.22 1017.45,1025.72 
							1038.66,1025.72 						"/>
						<path class="st4" d="M1179.62,942.59c-6.43,0.95-14.08,8.13-17.38,16.7v-14.06h-18.7v80.5h19.83v-38.43
							c0-8.74,0.57-15.34,4.67-20.53c3.09-3.9,8.55-7.79,13.98-7.64c5.44,0.14,8.58,1.24,8.58,1.24v-17.39
							C1190.6,942.97,1185.36,941.74,1179.62,942.59"/>
						<path class="st4" d="M1268.1,970.7c0-8.43-2.46-15.16-7.34-19.96c-5.08-5.02-12.28-7.65-21.57-7.65
							c-9.67,0-16.98,5.05-22.86,14.19v-12.06h-18.67v80.51h19.7v-47.49c0-5.78,1.25-11.16,4.93-14.78
							c3.26-3.21,7.94-5.02,13.59-4.91c9.1,0.18,12.16,5.32,12.53,16.84v50.35h19.69V970.7z"/>
						<path class="st4" d="M1345.5,966.96c0-6.03-2.05-11.08-6.06-15.04c-5.67-5.59-15.11-8.87-26.79-8.8
							c-11.72,0.05-31.49,2.42-33.78,24.34h19.82c-0.27-10.23,12.93-9.32,12.93-9.32c4.21,0,9.4,1.31,12.19,3.52
							c1.73,1.36,2.87,3.43,3.01,6.82c0.22,5.45-2.45,8.08-21.01,9.84c-14.33,1.37-31.4,5.2-31.4,25.48
							c0,6.45,2.24,12.09,6.47,16.25c5.14,5.07,12.87,7.84,21.81,7.84c11.8,0,18.63-2.92,24.71-9.61l0.96,7.47h19.04v-3.02
							c-2.46-1.91-1.9-9.89-1.9-9.89V966.96z M1294.1,1003.16c-0.51-6.05,3.05-10.39,12.4-11.98c2.44-0.49,4.98-0.7,7.41-1.07
							c3.7-0.54,8.12-1.56,11.88-4.06v12.34c0,9.98-10.07,13.71-17.42,13.6C1301,1011.88,1294.65,1009.22,1294.1,1003.16"/>
					</g>
				</g>
			</g>
		</g>
	</g>
	<g id="_x3C_Layer_x3E__Guides__x26__Spacing__x2013__333">
		<g id="_x3C_Group_x3E__Spacing_00000031179718960196359740000002927186150826391216_" class="st8">
			<g class="st9">
				<pattern  id="SVGID_1_" xlink:href="#Diagonala_linjer_3" patternTransform="matrix(1.1754 0 0 1.1754 947.2207 986.8526)">
				</pattern>
				<rect x="458.15" y="1636.44" class="st10" width="1083.71" height="113.56"/>
				<g>
					<path class="st11" d="M1541.85,1636.44h-7.05v1.17h7.05V1636.44L1541.85,1636.44z M1527.75,1636.44h-7.05v1.17h7.05V1636.44
						L1527.75,1636.44z M1513.65,1636.44h-7.05v1.17h7.05V1636.44L1513.65,1636.44z M1499.55,1636.44h-7.05v1.17h7.05V1636.44
						L1499.55,1636.44z M1485.45,1636.44h-7.05v1.17h7.05V1636.44L1485.45,1636.44z M1471.35,1636.44h-7.05v1.17h7.05V1636.44
						L1471.35,1636.44z M1457.25,1636.44h-7.05v1.17h7.05V1636.44L1457.25,1636.44z M1443.15,1636.44h-7.05v1.17h7.05V1636.44
						L1443.15,1636.44z M1429.05,1636.44H1422v1.17h7.05V1636.44L1429.05,1636.44z M1414.95,1636.44h-7.05v1.17h7.05V1636.44
						L1414.95,1636.44z M1400.85,1636.44h-7.05v1.17h7.05V1636.44L1400.85,1636.44z M1386.75,1636.44h-7.05v1.17h7.05V1636.44
						L1386.75,1636.44z M1372.65,1636.44h-7.05v1.17h7.05V1636.44L1372.65,1636.44z M1358.55,1636.44h-7.05v1.17h7.05V1636.44
						L1358.55,1636.44z M1344.45,1636.44h-7.05v1.17h7.05V1636.44L1344.45,1636.44z M1330.35,1636.44h-7.05v1.17h7.05V1636.44
						L1330.35,1636.44z M1316.25,1636.44h-7.05v1.17h7.05V1636.44L1316.25,1636.44z M1302.15,1636.44h-7.05v1.17h7.05V1636.44
						L1302.15,1636.44z M1288.05,1636.44H1281v1.17h7.05V1636.44L1288.05,1636.44z M1273.95,1636.44h-7.05v1.17h7.05V1636.44
						L1273.95,1636.44z M1259.85,1636.44h-7.05v1.17h7.05V1636.44L1259.85,1636.44z M1245.75,1636.44h-7.05v1.17h7.05V1636.44
						L1245.75,1636.44z M1231.65,1636.44h-7.05v1.17h7.05V1636.44L1231.65,1636.44z M1217.55,1636.44h-7.05v1.17h7.05V1636.44
						L1217.55,1636.44z M1203.45,1636.44h-7.05v1.17h7.05V1636.44L1203.45,1636.44z M1189.35,1636.44h-7.05v1.17h7.05V1636.44
						L1189.35,1636.44z M1175.25,1636.44h-7.05v1.17h7.05V1636.44L1175.25,1636.44z M1161.15,1636.44h-7.05v1.17h7.05V1636.44
						L1161.15,1636.44z M1147.05,1636.44H1140v1.17h7.05V1636.44L1147.05,1636.44z M1132.95,1636.44h-7.05v1.17h7.05V1636.44
						L1132.95,1636.44z M1118.85,1636.44h-7.05v1.17h7.05V1636.44L1118.85,1636.44z M1104.75,1636.44h-7.05v1.17h7.05V1636.44
						L1104.75,1636.44z M1090.65,1636.44h-7.05v1.17h7.05V1636.44L1090.65,1636.44z M1076.55,1636.44h-7.05v1.17h7.05V1636.44
						L1076.55,1636.44z M1062.45,1636.44h-7.05v1.17h7.05V1636.44L1062.45,1636.44z M1048.35,1636.44h-7.05v1.17h7.05V1636.44
						L1048.35,1636.44z M1034.25,1636.44h-7.05v1.17h7.05V1636.44L1034.25,1636.44z M1020.15,1636.44h-7.05v1.17h7.05V1636.44
						L1020.15,1636.44z M1006.05,1636.44H999v1.17h7.05V1636.44L1006.05,1636.44z M991.95,1636.44h-7.05v1.17h7.05V1636.44
						L991.95,1636.44z M977.85,1636.44h-7.05v1.17h7.05V1636.44L977.85,1636.44z M963.75,1636.44h-7.05v1.17h7.05V1636.44
						L963.75,1636.44z M949.65,1636.44h-7.05v1.17h7.05V1636.44L949.65,1636.44z M935.55,1636.44h-7.05v1.17h7.05V1636.44
						L935.55,1636.44z M921.45,1636.44h-7.05v1.17h7.05V1636.44L921.45,1636.44z M907.35,1636.44h-7.05v1.17h7.05V1636.44
						L907.35,1636.44z M893.25,1636.44h-7.05v1.17h7.05V1636.44L893.25,1636.44z M879.15,1636.44h-7.05v1.17h7.05V1636.44
						L879.15,1636.44z M865.05,1636.44H858v1.17h7.05V1636.44L865.05,1636.44z M850.95,1636.44h-7.05v1.17h7.05V1636.44
						L850.95,1636.44z M836.85,1636.44h-7.05v1.17h7.05V1636.44L836.85,1636.44z M822.75,1636.44h-7.05v1.17h7.05V1636.44
						L822.75,1636.44z M808.65,1636.44h-7.05v1.17h7.05V1636.44L808.65,1636.44z M794.55,1636.44h-7.05v1.17h7.05V1636.44
						L794.55,1636.44z M780.45,1636.44h-7.05v1.17h7.05V1636.44L780.45,1636.44z M766.35,1636.44h-7.05v1.17h7.05V1636.44
						L766.35,1636.44z M752.25,1636.44h-7.05v1.17h7.05V1636.44L752.25,1636.44z M738.15,1636.44h-7.05v1.17h7.05V1636.44
						L738.15,1636.44z M724.05,1636.44H717v1.17h7.05V1636.44L724.05,1636.44z M709.95,1636.44h-7.05v1.17h7.05V1636.44
						L709.95,1636.44z M695.85,1636.44h-7.05v1.17h7.05V1636.44L695.85,1636.44z M681.75,1636.44h-7.05v1.17h7.05V1636.44
						L681.75,1636.44z M667.65,1636.44h-7.05v1.17h7.05V1636.44L667.65,1636.44z M653.55,1636.44h-7.05v1.17h7.05V1636.44
						L653.55,1636.44z M639.45,1636.44h-7.05v1.17h7.05V1636.44L639.45,1636.44z M625.35,1636.44h-7.05v1.17h7.05V1636.44
						L625.35,1636.44z M611.25,1636.44h-7.05v1.17h7.05V1636.44L611.25,1636.44z M597.15,1636.44h-7.05v1.17h7.05V1636.44
						L597.15,1636.44z M583.05,1636.44H576v1.17h7.05V1636.44L583.05,1636.44z M568.95,1636.44h-7.05v1.17h7.05V1636.44
						L568.95,1636.44z M554.85,1636.44h-7.05v1.17h7.05V1636.44L554.85,1636.44z M540.75,1636.44h-7.05v1.17h7.05V1636.44
						L540.75,1636.44z M526.65,1636.44h-7.05v1.17h7.05V1636.44L526.65,1636.44z M512.55,1636.44h-7.05v1.17h7.05V1636.44
						L512.55,1636.44z M498.45,1636.44h-7.05v1.17h7.05V1636.44L498.45,1636.44z M484.35,1636.44h-7.05v1.17h7.05V1636.44
						L484.35,1636.44z M470.25,1636.44h-7.05v1.17h7.05V1636.44L470.25,1636.44z M459.32,1638.43h-1.18v7.05h1.18V1638.43
						L459.32,1638.43z M459.32,1652.53h-1.18v7.05h1.18V1652.53L459.32,1652.53z M459.32,1666.63h-1.18v7.05h1.18V1666.63
						L459.32,1666.63z M459.32,1680.73h-1.18v7.05h1.18V1680.73L459.32,1680.73z M459.32,1694.83h-1.18v7.05h1.18V1694.83
						L459.32,1694.83z M459.32,1708.93h-1.18v7.05h1.18V1708.93L459.32,1708.93z M459.32,1723.03h-1.18v7.05h1.18V1723.03
						L459.32,1723.03z M459.32,1737.13h-1.18v7.05h1.18V1737.13L459.32,1737.13z M466.42,1748.82h-7.05v1.17h7.05V1748.82
						L466.42,1748.82z M480.52,1748.82h-7.05v1.17h7.05V1748.82L480.52,1748.82z M494.62,1748.82h-7.05v1.17h7.05V1748.82
						L494.62,1748.82z M508.72,1748.82h-7.05v1.17h7.05V1748.82L508.72,1748.82z M522.82,1748.82h-7.05v1.17h7.05V1748.82
						L522.82,1748.82z M536.92,1748.82h-7.05v1.17h7.05V1748.82L536.92,1748.82z M551.02,1748.82h-7.05v1.17h7.05V1748.82
						L551.02,1748.82z M565.12,1748.82h-7.05v1.17h7.05V1748.82L565.12,1748.82z M579.22,1748.82h-7.05v1.17h7.05V1748.82
						L579.22,1748.82z M593.32,1748.82h-7.05v1.17h7.05V1748.82L593.32,1748.82z M607.42,1748.82h-7.05v1.17h7.05V1748.82
						L607.42,1748.82z M621.52,1748.82h-7.05v1.17h7.05V1748.82L621.52,1748.82z M635.62,1748.82h-7.05v1.17h7.05V1748.82
						L635.62,1748.82z M649.72,1748.82h-7.05v1.17h7.05V1748.82L649.72,1748.82z M663.82,1748.82h-7.05v1.17h7.05V1748.82
						L663.82,1748.82z M677.92,1748.82h-7.05v1.17h7.05V1748.82L677.92,1748.82z M692.02,1748.82h-7.05v1.17h7.05V1748.82
						L692.02,1748.82z M706.12,1748.82h-7.05v1.17h7.05V1748.82L706.12,1748.82z M720.22,1748.82h-7.05v1.17h7.05V1748.82
						L720.22,1748.82z M734.32,1748.82h-7.05v1.17h7.05V1748.82L734.32,1748.82z M748.42,1748.82h-7.05v1.17h7.05V1748.82
						L748.42,1748.82z M762.52,1748.82h-7.05v1.17h7.05V1748.82L762.52,1748.82z M776.62,1748.82h-7.05v1.17h7.05V1748.82
						L776.62,1748.82z M790.72,1748.82h-7.05v1.17h7.05V1748.82L790.72,1748.82z M804.82,1748.82h-7.05v1.17h7.05V1748.82
						L804.82,1748.82z M818.92,1748.82h-7.05v1.17h7.05V1748.82L818.92,1748.82z M833.02,1748.82h-7.05v1.17h7.05V1748.82
						L833.02,1748.82z M847.12,1748.82h-7.05v1.17h7.05V1748.82L847.12,1748.82z M861.22,1748.82h-7.05v1.17h7.05V1748.82
						L861.22,1748.82z M875.32,1748.82h-7.05v1.17h7.05V1748.82L875.32,1748.82z M889.42,1748.82h-7.05v1.17h7.05V1748.82
						L889.42,1748.82z M903.52,1748.82h-7.05v1.17h7.05V1748.82L903.52,1748.82z M917.62,1748.82h-7.05v1.17h7.05V1748.82
						L917.62,1748.82z M931.72,1748.82h-7.05v1.17h7.05V1748.82L931.72,1748.82z M945.82,1748.82h-7.05v1.17h7.05V1748.82
						L945.82,1748.82z M959.92,1748.82h-7.05v1.17h7.05V1748.82L959.92,1748.82z M974.02,1748.82h-7.05v1.17h7.05V1748.82
						L974.02,1748.82z M988.12,1748.82h-7.05v1.17h7.05V1748.82L988.12,1748.82z M1002.22,1748.82h-7.05v1.17h7.05V1748.82
						L1002.22,1748.82z M1016.32,1748.82h-7.05v1.17h7.05V1748.82L1016.32,1748.82z M1030.42,1748.82h-7.05v1.17h7.05V1748.82
						L1030.42,1748.82z M1044.52,1748.82h-7.05v1.17h7.05V1748.82L1044.52,1748.82z M1058.62,1748.82h-7.05v1.17h7.05V1748.82
						L1058.62,1748.82z M1072.72,1748.82h-7.05v1.17h7.05V1748.82L1072.72,1748.82z M1086.82,1748.82h-7.05v1.17h7.05V1748.82
						L1086.82,1748.82z M1100.92,1748.82h-7.05v1.17h7.05V1748.82L1100.92,1748.82z M1115.02,1748.82h-7.05v1.17h7.05V1748.82
						L1115.02,1748.82z M1129.12,1748.82h-7.05v1.17h7.05V1748.82L1129.12,1748.82z M1143.22,1748.82h-7.05v1.17h7.05V1748.82
						L1143.22,1748.82z M1157.32,1748.82h-7.05v1.17h7.05V1748.82L1157.32,1748.82z M1171.42,1748.82h-7.05v1.17h7.05V1748.82
						L1171.42,1748.82z M1185.52,1748.82h-7.05v1.17h7.05V1748.82L1185.52,1748.82z M1199.62,1748.82h-7.05v1.17h7.05V1748.82
						L1199.62,1748.82z M1213.72,1748.82h-7.05v1.17h7.05V1748.82L1213.72,1748.82z M1227.82,1748.82h-7.05v1.17h7.05V1748.82
						L1227.82,1748.82z M1241.92,1748.82h-7.05v1.17h7.05V1748.82L1241.92,1748.82z M1256.02,1748.82h-7.05v1.17h7.05V1748.82
						L1256.02,1748.82z M1270.12,1748.82h-7.05v1.17h7.05V1748.82L1270.12,1748.82z M1284.22,1748.82h-7.05v1.17h7.05V1748.82
						L1284.22,1748.82z M1298.32,1748.82h-7.05v1.17h7.05V1748.82L1298.32,1748.82z M1312.42,1748.82h-7.05v1.17h7.05V1748.82
						L1312.42,1748.82z M1326.52,1748.82h-7.05v1.17h7.05V1748.82L1326.52,1748.82z M1340.62,1748.82h-7.05v1.17h7.05V1748.82
						L1340.62,1748.82z M1354.72,1748.82h-7.05v1.17h7.05V1748.82L1354.72,1748.82z M1368.82,1748.82h-7.05v1.17h7.05V1748.82
						L1368.82,1748.82z M1382.92,1748.82h-7.05v1.17h7.05V1748.82L1382.92,1748.82z M1397.02,1748.82h-7.05v1.17h7.05V1748.82
						L1397.02,1748.82z M1411.12,1748.82h-7.05v1.17h7.05V1748.82L1411.12,1748.82z M1425.22,1748.82h-7.05v1.17h7.05V1748.82
						L1425.22,1748.82z M1439.32,1748.82h-7.05v1.17h7.05V1748.82L1439.32,1748.82z M1453.42,1748.82h-7.05v1.17h7.05V1748.82
						L1453.42,1748.82z M1467.52,1748.82h-7.05v1.17h7.05V1748.82L1467.52,1748.82z M1481.62,1748.82h-7.05v1.17h7.05V1748.82
						L1481.62,1748.82z M1495.72,1748.82h-7.05v1.17h7.05V1748.82L1495.72,1748.82z M1509.82,1748.82h-7.05v1.17h7.05V1748.82
						L1509.82,1748.82z M1523.92,1748.82h-7.05v1.17h7.05V1748.82L1523.92,1748.82z M1538.02,1748.82h-7.05v1.17h7.05V1748.82
						L1538.02,1748.82z M1541.85,1739.73h-1.17v7.05h1.17V1739.73L1541.85,1739.73z M1541.85,1725.63h-1.17v7.05h1.17V1725.63
						L1541.85,1725.63z M1541.85,1711.53h-1.17v7.05h1.17V1711.53L1541.85,1711.53z M1541.85,1697.43h-1.17v7.05h1.17V1697.43
						L1541.85,1697.43z M1541.85,1683.33h-1.17v7.05h1.17V1683.33L1541.85,1683.33z M1541.85,1669.23h-1.17v7.05h1.17V1669.23
						L1541.85,1669.23z M1541.85,1655.13h-1.17v7.05h1.17V1655.13L1541.85,1655.13z M1541.85,1641.03h-1.17v7.05h1.17V1641.03
						L1541.85,1641.03z"/>
				</g>
			</g>
			<g class="st9">
				
					<pattern  id="SVGID_00000084508146539470510420000009599322375214437790_" xlink:href="#Diagonala_linjer_3" patternTransform="matrix(1.1754 0 0 1.1754 947.2207 986.8526)">
				</pattern>
				
					<rect x="458.15" y="1359.7" style="opacity:0.5;fill:url(#SVGID_00000084508146539470510420000009599322375214437790_);" width="1083.71" height="113.64"/>
				<g>
					<path class="st11" d="M1541.85,1359.7h-7.05v1.18h7.05V1359.7L1541.85,1359.7z M1527.75,1359.7h-7.05v1.18h7.05V1359.7
						L1527.75,1359.7z M1513.65,1359.7h-7.05v1.18h7.05V1359.7L1513.65,1359.7z M1499.55,1359.7h-7.05v1.18h7.05V1359.7
						L1499.55,1359.7z M1485.45,1359.7h-7.05v1.18h7.05V1359.7L1485.45,1359.7z M1471.35,1359.7h-7.05v1.18h7.05V1359.7
						L1471.35,1359.7z M1457.25,1359.7h-7.05v1.18h7.05V1359.7L1457.25,1359.7z M1443.15,1359.7h-7.05v1.18h7.05V1359.7
						L1443.15,1359.7z M1429.05,1359.7H1422v1.18h7.05V1359.7L1429.05,1359.7z M1414.95,1359.7h-7.05v1.18h7.05V1359.7
						L1414.95,1359.7z M1400.85,1359.7h-7.05v1.18h7.05V1359.7L1400.85,1359.7z M1386.75,1359.7h-7.05v1.18h7.05V1359.7
						L1386.75,1359.7z M1372.65,1359.7h-7.05v1.18h7.05V1359.7L1372.65,1359.7z M1358.55,1359.7h-7.05v1.18h7.05V1359.7
						L1358.55,1359.7z M1344.45,1359.7h-7.05v1.18h7.05V1359.7L1344.45,1359.7z M1330.35,1359.7h-7.05v1.18h7.05V1359.7
						L1330.35,1359.7z M1316.25,1359.7h-7.05v1.18h7.05V1359.7L1316.25,1359.7z M1302.15,1359.7h-7.05v1.18h7.05V1359.7
						L1302.15,1359.7z M1288.05,1359.7H1281v1.18h7.05V1359.7L1288.05,1359.7z M1273.95,1359.7h-7.05v1.18h7.05V1359.7
						L1273.95,1359.7z M1259.85,1359.7h-7.05v1.18h7.05V1359.7L1259.85,1359.7z M1245.75,1359.7h-7.05v1.18h7.05V1359.7
						L1245.75,1359.7z M1231.65,1359.7h-7.05v1.18h7.05V1359.7L1231.65,1359.7z M1217.55,1359.7h-7.05v1.18h7.05V1359.7
						L1217.55,1359.7z M1203.45,1359.7h-7.05v1.18h7.05V1359.7L1203.45,1359.7z M1189.35,1359.7h-7.05v1.18h7.05V1359.7
						L1189.35,1359.7z M1175.25,1359.7h-7.05v1.18h7.05V1359.7L1175.25,1359.7z M1161.15,1359.7h-7.05v1.18h7.05V1359.7
						L1161.15,1359.7z M1147.05,1359.7H1140v1.18h7.05V1359.7L1147.05,1359.7z M1132.95,1359.7h-7.05v1.18h7.05V1359.7
						L1132.95,1359.7z M1118.85,1359.7h-7.05v1.18h7.05V1359.7L1118.85,1359.7z M1104.75,1359.7h-7.05v1.18h7.05V1359.7
						L1104.75,1359.7z M1090.65,1359.7h-7.05v1.18h7.05V1359.7L1090.65,1359.7z M1076.55,1359.7h-7.05v1.18h7.05V1359.7
						L1076.55,1359.7z M1062.45,1359.7h-7.05v1.18h7.05V1359.7L1062.45,1359.7z M1048.35,1359.7h-7.05v1.18h7.05V1359.7
						L1048.35,1359.7z M1034.25,1359.7h-7.05v1.18h7.05V1359.7L1034.25,1359.7z M1020.15,1359.7h-7.05v1.18h7.05V1359.7
						L1020.15,1359.7z M1006.05,1359.7H999v1.18h7.05V1359.7L1006.05,1359.7z M991.95,1359.7h-7.05v1.18h7.05V1359.7L991.95,1359.7z
						 M977.85,1359.7h-7.05v1.18h7.05V1359.7L977.85,1359.7z M963.75,1359.7h-7.05v1.18h7.05V1359.7L963.75,1359.7z M949.65,1359.7
						h-7.05v1.18h7.05V1359.7L949.65,1359.7z M935.55,1359.7h-7.05v1.18h7.05V1359.7L935.55,1359.7z M921.45,1359.7h-7.05v1.18h7.05
						V1359.7L921.45,1359.7z M907.35,1359.7h-7.05v1.18h7.05V1359.7L907.35,1359.7z M893.25,1359.7h-7.05v1.18h7.05V1359.7
						L893.25,1359.7z M879.15,1359.7h-7.05v1.18h7.05V1359.7L879.15,1359.7z M865.05,1359.7H858v1.18h7.05V1359.7L865.05,1359.7z
						 M850.95,1359.7h-7.05v1.18h7.05V1359.7L850.95,1359.7z M836.85,1359.7h-7.05v1.18h7.05V1359.7L836.85,1359.7z M822.75,1359.7
						h-7.05v1.18h7.05V1359.7L822.75,1359.7z M808.65,1359.7h-7.05v1.18h7.05V1359.7L808.65,1359.7z M794.55,1359.7h-7.05v1.18h7.05
						V1359.7L794.55,1359.7z M780.45,1359.7h-7.05v1.18h7.05V1359.7L780.45,1359.7z M766.35,1359.7h-7.05v1.18h7.05V1359.7
						L766.35,1359.7z M752.25,1359.7h-7.05v1.18h7.05V1359.7L752.25,1359.7z M738.15,1359.7h-7.05v1.18h7.05V1359.7L738.15,1359.7z
						 M724.05,1359.7H717v1.18h7.05V1359.7L724.05,1359.7z M709.95,1359.7h-7.05v1.18h7.05V1359.7L709.95,1359.7z M695.85,1359.7
						h-7.05v1.18h7.05V1359.7L695.85,1359.7z M681.75,1359.7h-7.05v1.18h7.05V1359.7L681.75,1359.7z M667.65,1359.7h-7.05v1.18h7.05
						V1359.7L667.65,1359.7z M653.55,1359.7h-7.05v1.18h7.05V1359.7L653.55,1359.7z M639.45,1359.7h-7.05v1.18h7.05V1359.7
						L639.45,1359.7z M625.35,1359.7h-7.05v1.18h7.05V1359.7L625.35,1359.7z M611.25,1359.7h-7.05v1.18h7.05V1359.7L611.25,1359.7z
						 M597.15,1359.7h-7.05v1.18h7.05V1359.7L597.15,1359.7z M583.05,1359.7H576v1.18h7.05V1359.7L583.05,1359.7z M568.95,1359.7
						h-7.05v1.18h7.05V1359.7L568.95,1359.7z M554.85,1359.7h-7.05v1.18h7.05V1359.7L554.85,1359.7z M540.75,1359.7h-7.05v1.18h7.05
						V1359.7L540.75,1359.7z M526.65,1359.7h-7.05v1.18h7.05V1359.7L526.65,1359.7z M512.55,1359.7h-7.05v1.18h7.05V1359.7
						L512.55,1359.7z M498.45,1359.7h-7.05v1.18h7.05V1359.7L498.45,1359.7z M484.35,1359.7h-7.05v1.18h7.05V1359.7L484.35,1359.7z
						 M470.25,1359.7h-7.05v1.18h7.05V1359.7L470.25,1359.7z M459.32,1361.69h-1.18v7.05h1.18V1361.69L459.32,1361.69z
						 M459.32,1375.79h-1.18v7.05h1.18V1375.79L459.32,1375.79z M459.32,1389.89h-1.18v7.05h1.18V1389.89L459.32,1389.89z
						 M459.32,1403.99h-1.18v7.05h1.18V1403.99L459.32,1403.99z M459.32,1418.09h-1.18v7.05h1.18V1418.09L459.32,1418.09z
						 M459.32,1432.19h-1.18v7.05h1.18V1432.19L459.32,1432.19z M459.32,1446.29h-1.18v7.05h1.18V1446.29L459.32,1446.29z
						 M459.32,1460.39h-1.18v7.05h1.18V1460.39L459.32,1460.39z M466.35,1472.16h-7.05v1.18h7.05V1472.16L466.35,1472.16z
						 M480.45,1472.16h-7.05v1.18h7.05V1472.16L480.45,1472.16z M494.55,1472.16h-7.05v1.18h7.05V1472.16L494.55,1472.16z
						 M508.65,1472.16h-7.05v1.18h7.05V1472.16L508.65,1472.16z M522.75,1472.16h-7.05v1.18h7.05V1472.16L522.75,1472.16z
						 M536.85,1472.16h-7.05v1.18h7.05V1472.16L536.85,1472.16z M550.95,1472.16h-7.05v1.18h7.05V1472.16L550.95,1472.16z
						 M565.05,1472.16H558v1.18h7.05V1472.16L565.05,1472.16z M579.15,1472.16h-7.05v1.18h7.05V1472.16L579.15,1472.16z
						 M593.25,1472.16h-7.05v1.18h7.05V1472.16L593.25,1472.16z M607.35,1472.16h-7.05v1.18h7.05V1472.16L607.35,1472.16z
						 M621.45,1472.16h-7.05v1.18h7.05V1472.16L621.45,1472.16z M635.55,1472.16h-7.05v1.18h7.05V1472.16L635.55,1472.16z
						 M649.65,1472.16h-7.05v1.18h7.05V1472.16L649.65,1472.16z M663.75,1472.16h-7.05v1.18h7.05V1472.16L663.75,1472.16z
						 M677.85,1472.16h-7.05v1.18h7.05V1472.16L677.85,1472.16z M691.95,1472.16h-7.05v1.18h7.05V1472.16L691.95,1472.16z
						 M706.05,1472.16H699v1.18h7.05V1472.16L706.05,1472.16z M720.15,1472.16h-7.05v1.18h7.05V1472.16L720.15,1472.16z
						 M734.25,1472.16h-7.05v1.18h7.05V1472.16L734.25,1472.16z M748.35,1472.16h-7.05v1.18h7.05V1472.16L748.35,1472.16z
						 M762.45,1472.16h-7.05v1.18h7.05V1472.16L762.45,1472.16z M776.55,1472.16h-7.05v1.18h7.05V1472.16L776.55,1472.16z
						 M790.65,1472.16h-7.05v1.18h7.05V1472.16L790.65,1472.16z M804.75,1472.16h-7.05v1.18h7.05V1472.16L804.75,1472.16z
						 M818.85,1472.16h-7.05v1.18h7.05V1472.16L818.85,1472.16z M832.95,1472.16h-7.05v1.18h7.05V1472.16L832.95,1472.16z
						 M847.05,1472.16H840v1.18h7.05V1472.16L847.05,1472.16z M861.15,1472.16h-7.05v1.18h7.05V1472.16L861.15,1472.16z
						 M875.25,1472.16h-7.05v1.18h7.05V1472.16L875.25,1472.16z M889.35,1472.16h-7.05v1.18h7.05V1472.16L889.35,1472.16z
						 M903.45,1472.16h-7.05v1.18h7.05V1472.16L903.45,1472.16z M917.55,1472.16h-7.05v1.18h7.05V1472.16L917.55,1472.16z
						 M931.65,1472.16h-7.05v1.18h7.05V1472.16L931.65,1472.16z M945.75,1472.16h-7.05v1.18h7.05V1472.16L945.75,1472.16z
						 M959.85,1472.16h-7.05v1.18h7.05V1472.16L959.85,1472.16z M973.95,1472.16h-7.05v1.18h7.05V1472.16L973.95,1472.16z
						 M988.05,1472.16H981v1.18h7.05V1472.16L988.05,1472.16z M1002.15,1472.16h-7.05v1.18h7.05V1472.16L1002.15,1472.16z
						 M1016.25,1472.16h-7.05v1.18h7.05V1472.16L1016.25,1472.16z M1030.35,1472.16h-7.05v1.18h7.05V1472.16L1030.35,1472.16z
						 M1044.45,1472.16h-7.05v1.18h7.05V1472.16L1044.45,1472.16z M1058.55,1472.16h-7.05v1.18h7.05V1472.16L1058.55,1472.16z
						 M1072.65,1472.16h-7.05v1.18h7.05V1472.16L1072.65,1472.16z M1086.75,1472.16h-7.05v1.18h7.05V1472.16L1086.75,1472.16z
						 M1100.85,1472.16h-7.05v1.18h7.05V1472.16L1100.85,1472.16z M1114.95,1472.16h-7.05v1.18h7.05V1472.16L1114.95,1472.16z
						 M1129.05,1472.16H1122v1.18h7.05V1472.16L1129.05,1472.16z M1143.15,1472.16h-7.05v1.18h7.05V1472.16L1143.15,1472.16z
						 M1157.25,1472.16h-7.05v1.18h7.05V1472.16L1157.25,1472.16z M1171.35,1472.16h-7.05v1.18h7.05V1472.16L1171.35,1472.16z
						 M1185.45,1472.16h-7.05v1.18h7.05V1472.16L1185.45,1472.16z M1199.55,1472.16h-7.05v1.18h7.05V1472.16L1199.55,1472.16z
						 M1213.65,1472.16h-7.05v1.18h7.05V1472.16L1213.65,1472.16z M1227.75,1472.16h-7.05v1.18h7.05V1472.16L1227.75,1472.16z
						 M1241.85,1472.16h-7.05v1.18h7.05V1472.16L1241.85,1472.16z M1255.95,1472.16h-7.05v1.18h7.05V1472.16L1255.95,1472.16z
						 M1270.05,1472.16H1263v1.18h7.05V1472.16L1270.05,1472.16z M1284.15,1472.16h-7.05v1.18h7.05V1472.16L1284.15,1472.16z
						 M1298.25,1472.16h-7.05v1.18h7.05V1472.16L1298.25,1472.16z M1312.35,1472.16h-7.05v1.18h7.05V1472.16L1312.35,1472.16z
						 M1326.45,1472.16h-7.05v1.18h7.05V1472.16L1326.45,1472.16z M1340.55,1472.16h-7.05v1.18h7.05V1472.16L1340.55,1472.16z
						 M1354.65,1472.16h-7.05v1.18h7.05V1472.16L1354.65,1472.16z M1368.75,1472.16h-7.05v1.18h7.05V1472.16L1368.75,1472.16z
						 M1382.85,1472.16h-7.05v1.18h7.05V1472.16L1382.85,1472.16z M1396.95,1472.16h-7.05v1.18h7.05V1472.16L1396.95,1472.16z
						 M1411.05,1472.16H1404v1.18h7.05V1472.16L1411.05,1472.16z M1425.15,1472.16h-7.05v1.18h7.05V1472.16L1425.15,1472.16z
						 M1439.25,1472.16h-7.05v1.18h7.05V1472.16L1439.25,1472.16z M1453.35,1472.16h-7.05v1.18h7.05V1472.16L1453.35,1472.16z
						 M1467.45,1472.16h-7.05v1.18h7.05V1472.16L1467.45,1472.16z M1481.55,1472.16h-7.05v1.18h7.05V1472.16L1481.55,1472.16z
						 M1495.65,1472.16h-7.05v1.18h7.05V1472.16L1495.65,1472.16z M1509.75,1472.16h-7.05v1.18h7.05V1472.16L1509.75,1472.16z
						 M1523.85,1472.16h-7.05v1.18h7.05V1472.16L1523.85,1472.16z M1537.95,1472.16h-7.05v1.18h7.05V1472.16L1537.95,1472.16z
						 M1541.85,1463.14h-1.17v7.05h1.17V1463.14L1541.85,1463.14z M1541.85,1449.04h-1.17v7.05h1.17V1449.04L1541.85,1449.04z
						 M1541.85,1434.94h-1.17v7.05h1.17V1434.94L1541.85,1434.94z M1541.85,1420.84h-1.17v7.05h1.17V1420.84L1541.85,1420.84z
						 M1541.85,1406.74h-1.17v7.05h1.17V1406.74L1541.85,1406.74z M1541.85,1392.64h-1.17v7.05h1.17V1392.64L1541.85,1392.64z
						 M1541.85,1378.54h-1.17v7.05h1.17V1378.54L1541.85,1378.54z M1541.85,1364.44h-1.17v7.05h1.17V1364.44L1541.85,1364.44z"/>
				</g>
			</g>
			<g class="st9">
				
					<pattern  id="SVGID_00000169542220986669614690000003154771029290094485_" xlink:href="#Diagonala_linjer_3" patternTransform="matrix(1.1754 0 0 1.1754 1111.6429 986.8526)">
				</pattern>
				
					<rect x="991.06" y="1473.34" style="opacity:0.5;fill:url(#SVGID_00000169542220986669614690000003154771029290094485_);" width="48.03" height="163.1"/>
			</g>
		</g>
		<g id="Clear_space__x28_between_logo__x26__tag_x29_" class="st8">
			<g class="st9">
				
					<pattern  id="SVGID_00000036233028917906479080000014264015495133359537_" xlink:href="#Diagonala_linjer_3_kopia" patternTransform="matrix(1.1754 0 0 1.1754 947.2207 986.8526)">
				</pattern>
				
					<rect x="458.15" y="1333.71" style="opacity:0.5;fill:url(#SVGID_00000036233028917906479080000014264015495133359537_);" width="1083.71" height="25.99"/>
				<g>
					<path class="st11" d="M1527.75,1333.71h-7.05v1.18h7.05V1333.71L1527.75,1333.71z M1513.65,1333.71h-7.05v1.18h7.05V1333.71
						L1513.65,1333.71z M1499.54,1333.71h-7.05v1.18h7.05V1333.71L1499.54,1333.71z M1485.44,1333.71h-7.05v1.18h7.05V1333.71
						L1485.44,1333.71z M1471.33,1333.71h-7.05v1.18h7.05V1333.71L1471.33,1333.71z M1457.23,1333.71h-7.05v1.18h7.05V1333.71
						L1457.23,1333.71z M1443.12,1333.71h-7.05v1.18h7.05V1333.71L1443.12,1333.71z M1429.02,1333.71h-7.05v1.18h7.05V1333.71
						L1429.02,1333.71z M1414.91,1333.71h-7.05v1.18h7.05V1333.71L1414.91,1333.71z M1400.81,1333.71h-7.05v1.18h7.05V1333.71
						L1400.81,1333.71z M1386.7,1333.71h-7.05v1.18h7.05V1333.71L1386.7,1333.71z M1372.6,1333.71h-7.05v1.18h7.05V1333.71
						L1372.6,1333.71z M1358.5,1333.71h-7.05v1.18h7.05V1333.71L1358.5,1333.71z M1344.39,1333.71h-7.05v1.18h7.05V1333.71
						L1344.39,1333.71z M1330.29,1333.71h-7.05v1.18h7.05V1333.71L1330.29,1333.71z M1316.18,1333.71h-7.05v1.18h7.05V1333.71
						L1316.18,1333.71z M1302.08,1333.71h-7.05v1.18h7.05V1333.71L1302.08,1333.71z M1287.97,1333.71h-7.05v1.18h7.05V1333.71
						L1287.97,1333.71z M1273.87,1333.71h-7.05v1.18h7.05V1333.71L1273.87,1333.71z M1259.76,1333.71h-7.05v1.18h7.05V1333.71
						L1259.76,1333.71z M1245.66,1333.71h-7.05v1.18h7.05V1333.71L1245.66,1333.71z M1231.56,1333.71h-7.05v1.18h7.05V1333.71
						L1231.56,1333.71z M1217.45,1333.71h-7.05v1.18h7.05V1333.71L1217.45,1333.71z M1203.35,1333.71h-7.05v1.18h7.05V1333.71
						L1203.35,1333.71z M1189.24,1333.71h-7.05v1.18h7.05V1333.71L1189.24,1333.71z M1175.14,1333.71h-7.05v1.18h7.05V1333.71
						L1175.14,1333.71z M1161.03,1333.71h-7.05v1.18h7.05V1333.71L1161.03,1333.71z M1146.93,1333.71h-7.05v1.18h7.05V1333.71
						L1146.93,1333.71z M1132.82,1333.71h-7.05v1.18h7.05V1333.71L1132.82,1333.71z M1118.72,1333.71h-7.05v1.18h7.05V1333.71
						L1118.72,1333.71z M1104.62,1333.71h-7.05v1.18h7.05V1333.71L1104.62,1333.71z M1090.51,1333.71h-7.05v1.18h7.05V1333.71
						L1090.51,1333.71z M1076.41,1333.71h-7.05v1.18h7.05V1333.71L1076.41,1333.71z M1062.3,1333.71h-7.05v1.18h7.05V1333.71
						L1062.3,1333.71z M1048.2,1333.71h-7.05v1.18h7.05V1333.71L1048.2,1333.71z M1034.09,1333.71h-7.05v1.18h7.05V1333.71
						L1034.09,1333.71z M1019.99,1333.71h-7.05v1.18h7.05V1333.71L1019.99,1333.71z M1005.88,1333.71h-7.05v1.18h7.05V1333.71
						L1005.88,1333.71z M991.78,1333.71h-7.05v1.18h7.05V1333.71L991.78,1333.71z M977.67,1333.71h-7.05v1.18h7.05V1333.71
						L977.67,1333.71z M963.57,1333.71h-7.05v1.18h7.05V1333.71L963.57,1333.71z M949.47,1333.71h-7.05v1.18h7.05V1333.71
						L949.47,1333.71z M935.36,1333.71h-7.05v1.18h7.05V1333.71L935.36,1333.71z M921.26,1333.71h-7.05v1.18h7.05V1333.71
						L921.26,1333.71z M907.15,1333.71h-7.05v1.18h7.05V1333.71L907.15,1333.71z M893.05,1333.71H886v1.18h7.05V1333.71
						L893.05,1333.71z M878.94,1333.71h-7.05v1.18h7.05V1333.71L878.94,1333.71z M864.84,1333.71h-7.05v1.18h7.05V1333.71
						L864.84,1333.71z M850.73,1333.71h-7.05v1.18h7.05V1333.71L850.73,1333.71z M836.63,1333.71h-7.05v1.18h7.05V1333.71
						L836.63,1333.71z M822.53,1333.71h-7.05v1.18h7.05V1333.71L822.53,1333.71z M808.42,1333.71h-7.05v1.18h7.05V1333.71
						L808.42,1333.71z M794.32,1333.71h-7.05v1.18h7.05V1333.71L794.32,1333.71z M780.21,1333.71h-7.05v1.18h7.05V1333.71
						L780.21,1333.71z M766.11,1333.71h-7.05v1.18h7.05V1333.71L766.11,1333.71z M752,1333.71h-7.05v1.18H752V1333.71L752,1333.71z
						 M737.9,1333.71h-7.05v1.18h7.05V1333.71L737.9,1333.71z M723.79,1333.71h-7.05v1.18h7.05V1333.71L723.79,1333.71z
						 M709.69,1333.71h-7.05v1.18h7.05V1333.71L709.69,1333.71z M695.59,1333.71h-7.05v1.18h7.05V1333.71L695.59,1333.71z
						 M681.48,1333.71h-7.05v1.18h7.05V1333.71L681.48,1333.71z M667.38,1333.71h-7.05v1.18h7.05V1333.71L667.38,1333.71z
						 M653.27,1333.71h-7.05v1.18h7.05V1333.71L653.27,1333.71z M639.17,1333.71h-7.05v1.18h7.05V1333.71L639.17,1333.71z
						 M625.06,1333.71h-7.05v1.18h7.05V1333.71L625.06,1333.71z M610.96,1333.71h-7.05v1.18h7.05V1333.71L610.96,1333.71z
						 M596.85,1333.71h-7.05v1.18h7.05V1333.71L596.85,1333.71z M582.75,1333.71h-7.05v1.18h7.05V1333.71L582.75,1333.71z
						 M568.64,1333.71h-7.05v1.18h7.05V1333.71L568.64,1333.71z M554.54,1333.71h-7.05v1.18h7.05V1333.71L554.54,1333.71z
						 M540.44,1333.71h-7.05v1.18h7.05V1333.71L540.44,1333.71z M526.33,1333.71h-7.05v1.18h7.05V1333.71L526.33,1333.71z
						 M512.23,1333.71h-7.05v1.18h7.05V1333.71L512.23,1333.71z M498.12,1333.71h-7.05v1.18h7.05V1333.71L498.12,1333.71z
						 M484.02,1333.71h-7.05v1.18h7.05V1333.71L484.02,1333.71z M469.91,1333.71h-7.05v1.18h7.05V1333.71L469.91,1333.71z
						 M459.32,1336.05h-1.18v7.05h1.18V1336.05L459.32,1336.05z M459.32,1350.15h-1.18v7.05h1.18V1350.15L459.32,1350.15z
						 M469.75,1358.52h-7.05v1.18h7.05V1358.52L469.75,1358.52z M483.86,1358.52h-7.05v1.18h7.05V1358.52L483.86,1358.52z
						 M497.96,1358.52h-7.05v1.18h7.05V1358.52L497.96,1358.52z M512.07,1358.52h-7.05v1.18h7.05V1358.52L512.07,1358.52z
						 M526.17,1358.52h-7.05v1.18h7.05V1358.52L526.17,1358.52z M540.27,1358.52h-7.05v1.18h7.05V1358.52L540.27,1358.52z
						 M554.38,1358.52h-7.05v1.18h7.05V1358.52L554.38,1358.52z M568.48,1358.52h-7.05v1.18h7.05V1358.52L568.48,1358.52z
						 M582.59,1358.52h-7.05v1.18h7.05V1358.52L582.59,1358.52z M596.69,1358.52h-7.05v1.18h7.05V1358.52L596.69,1358.52z
						 M610.8,1358.52h-7.05v1.18h7.05V1358.52L610.8,1358.52z M624.9,1358.52h-7.05v1.18h7.05V1358.52L624.9,1358.52z
						 M639.01,1358.52h-7.05v1.18h7.05V1358.52L639.01,1358.52z M653.11,1358.52h-7.05v1.18h7.05V1358.52L653.11,1358.52z
						 M667.22,1358.52h-7.05v1.18h7.05V1358.52L667.22,1358.52z M681.32,1358.52h-7.05v1.18h7.05V1358.52L681.32,1358.52z
						 M695.42,1358.52h-7.05v1.18h7.05V1358.52L695.42,1358.52z M709.53,1358.52h-7.05v1.18h7.05V1358.52L709.53,1358.52z
						 M723.63,1358.52h-7.05v1.18h7.05V1358.52L723.63,1358.52z M737.74,1358.52h-7.05v1.18h7.05V1358.52L737.74,1358.52z
						 M751.84,1358.52h-7.05v1.18h7.05V1358.52L751.84,1358.52z M765.95,1358.52h-7.05v1.18h7.05V1358.52L765.95,1358.52z
						 M780.05,1358.52H773v1.18h7.05V1358.52L780.05,1358.52z M794.16,1358.52h-7.05v1.18h7.05V1358.52L794.16,1358.52z
						 M808.26,1358.52h-7.05v1.18h7.05V1358.52L808.26,1358.52z M822.36,1358.52h-7.05v1.18h7.05V1358.52L822.36,1358.52z
						 M836.47,1358.52h-7.05v1.18h7.05V1358.52L836.47,1358.52z M850.57,1358.52h-7.05v1.18h7.05V1358.52L850.57,1358.52z
						 M864.68,1358.52h-7.05v1.18h7.05V1358.52L864.68,1358.52z M878.78,1358.52h-7.05v1.18h7.05V1358.52L878.78,1358.52z
						 M892.89,1358.52h-7.05v1.18h7.05V1358.52L892.89,1358.52z M906.99,1358.52h-7.05v1.18h7.05V1358.52L906.99,1358.52z
						 M921.1,1358.52h-7.05v1.18h7.05V1358.52L921.1,1358.52z M935.2,1358.52h-7.05v1.18h7.05V1358.52L935.2,1358.52z
						 M949.3,1358.52h-7.05v1.18h7.05V1358.52L949.3,1358.52z M963.41,1358.52h-7.05v1.18h7.05V1358.52L963.41,1358.52z
						 M977.51,1358.52h-7.05v1.18h7.05V1358.52L977.51,1358.52z M991.62,1358.52h-7.05v1.18h7.05V1358.52L991.62,1358.52z
						 M1005.72,1358.52h-7.05v1.18h7.05V1358.52L1005.72,1358.52z M1019.83,1358.52h-7.05v1.18h7.05V1358.52L1019.83,1358.52z
						 M1033.93,1358.52h-7.05v1.18h7.05V1358.52L1033.93,1358.52z M1048.04,1358.52h-7.05v1.18h7.05V1358.52L1048.04,1358.52z
						 M1062.14,1358.52h-7.05v1.18h7.05V1358.52L1062.14,1358.52z M1076.25,1358.52h-7.05v1.18h7.05V1358.52L1076.25,1358.52z
						 M1090.35,1358.52h-7.05v1.18h7.05V1358.52L1090.35,1358.52z M1104.45,1358.52h-7.05v1.18h7.05V1358.52L1104.45,1358.52z
						 M1118.56,1358.52h-7.05v1.18h7.05V1358.52L1118.56,1358.52z M1132.66,1358.52h-7.05v1.18h7.05V1358.52L1132.66,1358.52z
						 M1146.77,1358.52h-7.05v1.18h7.05V1358.52L1146.77,1358.52z M1160.87,1358.52h-7.05v1.18h7.05V1358.52L1160.87,1358.52z
						 M1174.98,1358.52h-7.05v1.18h7.05V1358.52L1174.98,1358.52z M1189.08,1358.52h-7.05v1.18h7.05V1358.52L1189.08,1358.52z
						 M1203.19,1358.52h-7.05v1.18h7.05V1358.52L1203.19,1358.52z M1217.29,1358.52h-7.05v1.18h7.05V1358.52L1217.29,1358.52z
						 M1231.39,1358.52h-7.05v1.18h7.05V1358.52L1231.39,1358.52z M1245.5,1358.52h-7.05v1.18h7.05V1358.52L1245.5,1358.52z
						 M1259.6,1358.52h-7.05v1.18h7.05V1358.52L1259.6,1358.52z M1273.71,1358.52h-7.05v1.18h7.05V1358.52L1273.71,1358.52z
						 M1287.81,1358.52h-7.05v1.18h7.05V1358.52L1287.81,1358.52z M1301.92,1358.52h-7.05v1.18h7.05V1358.52L1301.92,1358.52z
						 M1316.02,1358.52h-7.05v1.18h7.05V1358.52L1316.02,1358.52z M1330.13,1358.52h-7.05v1.18h7.05V1358.52L1330.13,1358.52z
						 M1344.23,1358.52h-7.05v1.18h7.05V1358.52L1344.23,1358.52z M1358.33,1358.52h-7.05v1.18h7.05V1358.52L1358.33,1358.52z
						 M1372.44,1358.52h-7.05v1.18h7.05V1358.52L1372.44,1358.52z M1386.54,1358.52h-7.05v1.18h7.05V1358.52L1386.54,1358.52z
						 M1400.65,1358.52h-7.05v1.18h7.05V1358.52L1400.65,1358.52z M1414.75,1358.52h-7.05v1.18h7.05V1358.52L1414.75,1358.52z
						 M1428.86,1358.52h-7.05v1.18h7.05V1358.52L1428.86,1358.52z M1442.96,1358.52h-7.05v1.18h7.05V1358.52L1442.96,1358.52z
						 M1457.07,1358.52h-7.05v1.18h7.05V1358.52L1457.07,1358.52z M1471.17,1358.52h-7.05v1.18h7.05V1358.52L1471.17,1358.52z
						 M1485.28,1358.52h-7.05v1.18h7.05V1358.52L1485.28,1358.52z M1499.38,1358.52h-7.05v1.18h7.05V1358.52L1499.38,1358.52z
						 M1513.48,1358.52h-7.05v1.18h7.05V1358.52L1513.48,1358.52z M1527.59,1358.52h-7.05v1.18h7.05V1358.52L1527.59,1358.52z
						 M1541.69,1358.52h-7.05v1.18h7.05V1358.52L1541.69,1358.52z M1541.85,1345.76h-1.18v7.05h1.18V1345.76L1541.85,1345.76z
						 M1541.85,1333.71h-7.05v1.18h5.88v3.82h1.18V1333.71L1541.85,1333.71z"/>
				</g>
			</g>
		</g>
		<g id="_x3C_Layer_x3E__Guides">
		</g>
	</g>
</g>
<g id="_x3C_Layer_x3E__Symbol_set__x28_NOTE:_aligment_on_baselines_x29_">
</g>
</svg>
