<svg xmlns="http://www.w3.org/2000/svg" viewBox="0 0 2000 2000" style="enable-background:new 0 0 2000 2000" xml:space="preserve"><style>.st0{fill:none}.st1,.st2{fill:none;stroke:#cf3f2e;stroke-width:.75;stroke-linejoin:round}.st2{stroke:#000}.st3{fill:#273a60}.st4{fill:#fff}.st5{font-family:&apos;HusqvarnaGothic-Bold&apos;}.st6{font-size:65.9392px}.st7{letter-spacing:3}.st8{display:none}.st9{display:inline}.st11{fill:#f25420}</style><pattern width="144" height="144" patternUnits="userSpaceOnUse" id="Diagonala_linjer_3" viewBox="216.27 -360.26 144 144" style="overflow:visible"><path class="st0" d="M216.27-360.26h144v144h-144z"/><path class="st1" d="m288.27-164.83 123.42-123.43M288.27-144.26l144-144M288.27-123.69l164.57-164.57M288.27-103.12l185.14-185.14M288.27-82.55l205.71-205.71M288.27-61.98l226.28-226.28M288.27-41.4l246.85-246.86M288.27-20.83l267.42-267.43M288.27-.27l288-287.99M308.84-.27l267.43-267.42M329.41-.27l246.86-246.85M349.98-.27l226.29-226.28M144.27-164.83l123.42-123.43M144.27-144.26l144-144M144.27-123.69l164.57-164.57M144.27-103.12l185.14-185.14M144.27-82.55l205.71-205.71M144.27-61.98l226.28-226.28M144.27-41.4l246.85-246.86M144.27-20.83l267.42-267.43M144.27-.27l288-287.99M164.84-.27l267.43-267.42M185.41-.27l246.86-246.85M205.98-.27l226.29-226.28M.27-61.98l226.28-226.28M.27-41.4l246.85-246.86M.27-20.83l267.42-267.43M.27-.27l288-287.99M20.84-.27l267.43-267.42M41.41-.27l246.86-246.85M61.98-.27l226.29-226.28M288.27-308.83l123.42-123.43M288.27-288.26l144-144M288.27-267.69l164.57-164.57M288.27-247.12l185.14-185.14M288.27-226.55l205.71-205.71M288.27-205.98l226.28-226.28M288.27-185.4l246.85-246.86M288.27-164.83l267.42-267.43M288.27-144.27l288-287.99M308.84-144.27l267.43-267.42M329.41-144.27l246.86-246.85M349.98-144.27l226.29-226.28M144.27-308.83l123.42-123.43M144.27-288.26l144-144M144.27-267.69l164.57-164.57M144.27-247.12l185.14-185.14M144.27-226.55l205.71-205.71M144.27-205.98l226.28-226.28M144.27-185.4l246.85-246.86M144.27-164.83l267.42-267.43M144.27-144.27l288-287.99M164.84-144.27l267.43-267.42M185.41-144.27l246.86-246.85M205.98-144.27l226.29-226.28M226.55-144.27l205.72-205.71M247.12-144.27 432.27-329.4M267.69-144.27l164.58-164.56M288.27-144.27l144-143.99M308.84-144.27l123.43-123.42M.27-205.98l226.28-226.28M.27-185.4l246.85-246.86M.27-164.83l267.42-267.43M.27-144.27l288-287.99M20.84-144.27l267.43-267.42M41.41-144.27l246.86-246.85M61.98-144.27l226.29-226.28M82.55-144.27l205.72-205.71M103.12-144.27 288.27-329.4M123.69-144.27l164.58-164.56M144.27-144.27l144-143.99M164.84-144.27l123.43-123.42M288.27-349.98l226.28-226.28M288.27-329.4l246.85-246.86M288.27-308.83l267.42-267.43M288.27-288.27l288-287.99M308.84-288.27l267.43-267.42M329.41-288.27l246.86-246.85M349.98-288.27l226.29-226.28M144.27-349.98l226.28-226.28M144.27-329.4l246.85-246.86M144.27-308.83l267.42-267.43M144.27-288.27l288-287.99M164.84-288.27l267.43-267.42M185.41-288.27l246.86-246.85M205.98-288.27l226.29-226.28M226.55-288.27l205.72-205.71M247.12-288.27 432.27-473.4M267.69-288.27l164.58-164.56M288.27-288.27l144-143.99M308.84-288.27l123.43-123.42M.27-349.98l226.28-226.28M.27-329.4l246.85-246.86M.27-308.83l267.42-267.43M.27-288.27l288-287.99M20.84-288.27l267.43-267.42M41.41-288.27l246.86-246.85M61.98-288.27l226.29-226.28M82.55-288.27l205.72-205.71M103.12-288.27 288.27-473.4M123.69-288.27l164.58-164.56M144.27-288.27l144-143.99M164.84-288.27l123.43-123.42"/></pattern><pattern width="144" height="144" patternUnits="userSpaceOnUse" id="Diagonala_linjer_3_kopia" viewBox="216.27 -360.26 144 144" style="overflow:visible"><path class="st0" d="M216.27-360.26h144v144h-144z"/><path class="st2" d="m288.27-164.83 123.42-123.43M288.27-144.26l144-144M288.27-123.69l164.57-164.57M288.27-103.12l185.14-185.14M288.27-82.55l205.71-205.71M288.27-61.98l226.28-226.28M288.27-41.4l246.85-246.86M288.27-20.83l267.42-267.43M288.27-.27l288-287.99M308.84-.27l267.43-267.42M329.41-.27l246.86-246.85M349.98-.27l226.29-226.28M144.27-164.83l123.42-123.43M144.27-144.26l144-144M144.27-123.69l164.57-164.57M144.27-103.12l185.14-185.14M144.27-82.55l205.71-205.71M144.27-61.98l226.28-226.28M144.27-41.4l246.85-246.86M144.27-20.83l267.42-267.43M144.27-.27l288-287.99M164.84-.27l267.43-267.42M185.41-.27l246.86-246.85M205.98-.27l226.29-226.28M.27-61.98l226.28-226.28M.27-41.4l246.85-246.86M.27-20.83l267.42-267.43M.27-.27l288-287.99M20.84-.27l267.43-267.42M41.41-.27l246.86-246.85M61.98-.27l226.29-226.28M288.27-308.83l123.42-123.43M288.27-288.26l144-144M288.27-267.69l164.57-164.57M288.27-247.12l185.14-185.14M288.27-226.55l205.71-205.71M288.27-205.98l226.28-226.28M288.27-185.4l246.85-246.86M288.27-164.83l267.42-267.43M288.27-144.27l288-287.99M308.84-144.27l267.43-267.42M329.41-144.27l246.86-246.85M349.98-144.27l226.29-226.28M144.27-308.83l123.42-123.43M144.27-288.26l144-144M144.27-267.69l164.57-164.57M144.27-247.12l185.14-185.14M144.27-226.55l205.71-205.71M144.27-205.98l226.28-226.28M144.27-185.4l246.85-246.86M144.27-164.83l267.42-267.43M144.27-144.27l288-287.99M164.84-144.27l267.43-267.42M185.41-144.27l246.86-246.85M205.98-144.27l226.29-226.28M226.55-144.27l205.72-205.71M247.12-144.27 432.27-329.4M267.69-144.27l164.58-164.56M288.27-144.27l144-143.99M308.84-144.27l123.43-123.42M.27-205.98l226.28-226.28M.27-185.4l246.85-246.86M.27-164.83l267.42-267.43M.27-144.27l288-287.99M20.84-144.27l267.43-267.42M41.41-144.27l246.86-246.85M61.98-144.27l226.29-226.28M82.55-144.27l205.72-205.71M103.12-144.27 288.27-329.4M123.69-144.27l164.58-164.56M144.27-144.27l144-143.99M164.84-144.27l123.43-123.42M288.27-349.98l226.28-226.28M288.27-329.4l246.85-246.86M288.27-308.83l267.42-267.43M288.27-288.27l288-287.99M308.84-288.27l267.43-267.42M329.41-288.27l246.86-246.85M349.98-288.27l226.29-226.28M144.27-349.98l226.28-226.28M144.27-329.4l246.85-246.86M144.27-308.83l267.42-267.43M144.27-288.27l288-287.99M164.84-288.27l267.43-267.42M185.41-288.27l246.86-246.85M205.98-288.27l226.29-226.28M226.55-288.27l205.72-205.71M247.12-288.27 432.27-473.4M267.69-288.27l164.58-164.56M288.27-288.27l144-143.99M308.84-288.27l123.43-123.42M.27-349.98l226.28-226.28M.27-329.4l246.85-246.86M.27-308.83l267.42-267.43M.27-288.27l288-287.99M20.84-288.27l267.43-267.42M41.41-288.27l246.86-246.85M61.98-288.27l226.29-226.28M82.55-288.27l205.72-205.71M103.12-288.27 288.27-473.4M123.69-288.27l164.58-164.56M144.27-288.27l144-143.99M164.84-288.27l123.43-123.42"/></pattern><g id="_x33_33_Symbols"><g id="_x3C_Layer_x3E__Logo__x26__Anniversary_Symbol_tag"><g id="_x3C_Group_x3E__Logo__x26__333_Anniversary_Symbol_tag"><g id="_x3C_Group_x3E__333_Anniversary_Symbol_tag"><path id="_x3C_Rectangle_x3E__Background" transform="rotate(-180 1000 1554.85)" class="st3" d="M458.15 1359.7h1083.71V1750H458.15z"/><g id="_x3C_Group_x3E__Symbol__x26__Text"><path class="st0" d="M1039.95 1473.34h339.28v163.1h-339.28z"/><text transform="translate(1039.946 1519.494)"><tspan x="0" y="0" class="st4 st5 st6 st7">years of</tspan><tspan x="0" y="81.64" class="st4 st5 st6 st7">innova</tspan><tspan x="224.46" y="81.64" class="st4 st5 st6 st7">-</tspan></text><path id="_x3C_Bana_x3E__Three_00000117653584697203142910000017781149352651133614_" class="st4" d="M861.23 1495.76v-18.86H748.11v18.89h86.39l-32.23 32.23.1.1h-.1V1547c19.48 0 35.27 15.79 35.27 35.27 0 19.48-15.79 35.27-35.27 35.27-19.48 0-35.27-15.79-35.27-35.27h-18.89c0 29.91 24.25 54.16 54.16 54.16 29.91 0 54.16-24.25 54.16-54.16 0-22.09-13.23-41.08-32.2-49.51l36.98-36.98h.02v-.02z"/><path id="_x3C_Bana_x3E__Three_00000077291174584911621100000001857821785487627665_" class="st4" d="M991.06 1495.79v-.02l.01-.01-.01-.01v-18.86H877.95v18.89h86.39l-32.23 32.23.1.1h-.1V1547c19.48 0 35.27 15.79 35.27 35.27 0 19.48-15.79 35.27-35.27 35.27-19.48 0-35.27-15.79-35.27-35.27h-18.89c0 29.91 24.25 54.16 54.16 54.16s54.16-24.25 54.16-54.16c0-22.09-13.23-41.08-32.2-49.51l36.98-36.98h.01z"/><path id="_x3C_Bana_x3E__Three_00000052072344588053481880000017861763739311677353_" class="st4" d="M731.39 1495.76v-18.86H618.27v18.89h86.39l-32.23 32.23.1.1h-.1V1547c19.48 0 35.27 15.79 35.27 35.27 0 19.48-15.79 35.27-35.27 35.27s-35.27-15.79-35.27-35.27h-18.89c0 29.91 24.25 54.16 54.16 54.16s54.16-24.25 54.16-54.16c0-22.09-13.23-41.08-32.2-49.51l36.98-36.98h.02v-.02z"/></g></g><g id="_x3C_Group_x3E__Husqvarna_Logo"><path class="st3" d="M458.15 250h1083.71v1083.71H458.15z"/><path class="st4" d="M999.32 840.44c38.85 0 51.23.01 70.48-5.23 6.64-2.3 18.59-5.56 27.23-18.99 15.92-26.84 15.92-77.24 15.92-101.46 0-24.23 0-67.11-15.92-93.63-8.64-13.75-20.43-17.53-27.23-19.31-19.66-5.14-32.28-4.84-70.48-4.92h.03c-38.2.08-50.81-.23-70.46 4.92-6.81 1.78-18.6 5.56-27.23 19.31-15.93 26.52-15.93 69.4-15.93 93.63 0 24.22 0 74.62 15.93 101.46 8.63 13.42 20.59 16.69 27.23 18.99 19.24 5.24 31.63 5.23 70.46 5.23h-.03zm.07-343.72c16.93 0 27.97 2.94 32.6 3.92-2.32 21.27-1.64 38.32 0 43.23 5.65 16.37 37.74 24 50.69 16.47 14.28-8.5 11-34.31 11-51.33 0 0 21.04 4.9 33.94 9.66 10.47 3.87 25.92 11.43 25.92 11.43 3.06 21.54.15 53.39-21.42 64.19 16.26 16.03 21.72 35.01 28.71 70.04 5.63 31.42 4.31 53.35 3.96 71.67-1.65 24.89-1.65 38.31-7.62 60.9-8.62 25.84-13.73 37.98-31.21 55.94-35.47 36.51-93.28 34.36-126.56 34.34-33.28.02-91.09 2.16-126.57-34.34-17.49-17.96-22.58-30.1-31.21-55.94-5.96-22.59-5.96-36.01-7.62-60.9-.34-18.32-1.67-40.25 3.98-71.67 6.96-35.03 12.42-54.01 28.7-70.04-21.58-10.8-24.48-42.65-21.43-64.19 0 0 15.46-7.56 25.93-11.43 12.89-4.76 33.93-9.66 33.93-9.66 0 17.02-3.28 42.83 11 51.33 12.95 7.53 45.03-.09 50.68-16.47 1.67-4.91 2.33-21.96 0-43.23 4.64-.98 15.66-3.92 32.6-3.92"/><path class="st4" d="M999.41 731.94c33.2 0 32.49.02 32.49 10.49v65.96h45.16V625.7h-45.16v54.85c0 10.8.7 10.77-32.49 10.77h.02c-33.18 0-32.49.03-32.49-10.77V625.7H921.8v182.7h45.14v-65.96c0-10.47-.7-10.49 32.49-10.49h-.02zM1353.47 934.69h1.92c1.89 0 3.69-.18 3.69-2.11 0-1.84-1.5-1.96-3.46-1.96h-2.15v4.07zm7.29-2.23c0 1.1-.56 2.09-1.45 2.64-.56.35-1.11.46-1.97.58 1.59.58 1.99.93 3.86 5.13h-1.75c-1.94-4.2-2.44-4.93-5.31-4.93h-.68v4.93h-1.45v-11.35h4.81c3.94-.01 3.94 2.68 3.94 3m-4.28-6.92c-5.35 0-9.65 4.22-9.65 9.47s4.3 9.47 9.65 9.47c5.33 0 9.65-4.22 9.65-9.47s-4.32-9.47-9.65-9.47m0 20.27c-6.08 0-11-4.82-11-10.8 0-5.96 4.93-10.8 11-10.8s11 4.84 11 10.8c0 5.97-4.92 10.8-11 10.8M824.02 945.22h-19.83v47.22c0 13.36-5.44 20.13-16.61 20.13-4.34 0-7.54-1.7-9.8-3.92-2.84-2.82-4.24-7.5-4.24-14.32v-49.12h-19.7v50.74c0 11.17 2.58 19.16 7.93 24.42 5.1 5.03 11.32 7.47 21.62 7.47 7.2 0 16.01-4.82 21.07-11.17v9.05h19.57v-80.5zM1132.59 966.91c0-6.01-2.03-11.08-6.05-15.04-5.67-5.59-13.77-8.86-25.48-8.8-11.71.05-31.49 2.42-33.77 24.35h19.82c-.27-10.23 12.92-9.33 12.92-9.33 4.22 0 8.07 1.31 10.87 3.52 1.72 1.34 2.86 3.43 3 6.82.22 5.45-2.44 8.08-20.99 9.85-14.33 1.36-31.4 5.18-31.4 25.47 0 6.46 2.23 12.09 6.47 16.27 5.14 5.05 12.87 7.83 21.79 7.83 11.83 0 18.66-2.91 24.73-9.61l.96 7.47h19.04v-3.01c-2.46-1.91-1.92-9.91-1.92-9.91v-45.88zm-51.38 36.22c-.52-6.05 3.05-10.39 12.4-11.99 2.45-.47 4.97-.7 7.39-1.06 3.7-.55 8.12-1.56 11.89-4.07v12.34c0 9.98-10.08 13.72-17.43 13.6-7.35-.1-13.72-2.78-14.25-8.82M985.3 1047.51V945.27l-18.8-.05v10.07c-5.07-6.89-12.14-12.22-22.6-12.22-23.57 0-37.26 16.41-37.26 42.83 0 13.46 4.33 25.45 11.86 32.89 6.09 6.01 13.01 9.06 22.47 9.06 10.7 0 18.54-4.85 24.5-12.06v31.76l19.83-.04zm-38.98-35.56c-5.55 0-9.18-1.74-12.67-5.18-4.72-4.65-7.3-12.23-7.3-21.36 0-8.72 2.83-16.5 7.78-21.37 3.56-3.52 7.04-5.3 12.19-5.3 11.55 0 17.64 7.29 19.43 20.53.25 2 .37 9.33.25 10.7-1.3 14.17-7.48 21.98-19.68 21.98M654.44 1025.72h21.48v-47.77h45.07v47.77h21.5V918.3h-21.5v41.11h-45.07V918.3h-21.48zM868.03 1012.32c-8.46.22-15.07-3.38-16.31-10.63h-19.95c.94 20.36 21.67 26.47 36.01 26.17 14.33-.31 20.82-3.63 27.25-9.96 4.49-4.43 6.77-10.02 6.77-16.66 0-15.7-12.1-20.85-25.86-24.07l-4.33-.97c-10.69-2.06-19.48-4.17-18.97-10.26.51-6.1 7.21-7.42 12.46-7.58 5.24-.15 9.64.68 12.76 6.87h20.56c-2.05-15.61-16.61-22.37-32.06-22.15-15.19.22-33.25 6.16-33.25 23.48 0 16.32 11.47 21.27 25.24 24.2 1.85.42 3.73.81 5.54 1.19 10.29 2.14 18.02 4.16 18.18 10.85.19 6.69-5.55 9.32-14.04 9.52M1066.76 945.22h-20.51l-17.56 61.92-18.19-61.92h-21.4l28.35 80.5h21.21zM1179.62 942.59c-6.43.95-14.08 8.13-17.38 16.7v-14.06h-18.7v80.5h19.83V987.3c0-8.74.57-15.34 4.67-20.53 3.09-3.9 8.55-7.79 13.98-7.64 5.44.14 8.58 1.24 8.58 1.24v-17.39c0-.01-5.24-1.24-10.98-.39M1268.1 970.7c0-8.43-2.46-15.16-7.34-19.96-5.08-5.02-12.28-7.65-21.57-7.65-9.67 0-16.98 5.05-22.86 14.19v-12.06h-18.67v80.51h19.7v-47.49c0-5.78 1.25-11.16 4.93-14.78 3.26-3.21 7.94-5.02 13.59-4.91 9.1.18 12.16 5.32 12.53 16.84v50.35h19.69V970.7zM1345.5 966.96c0-6.03-2.05-11.08-6.06-15.04-5.67-5.59-15.11-8.87-26.79-8.8-11.72.05-31.49 2.42-33.78 24.34h19.82c-.27-10.23 12.93-9.32 12.93-9.32 4.21 0 9.4 1.31 12.19 3.52 1.73 1.36 2.87 3.43 3.01 6.82.22 5.45-2.45 8.08-21.01 9.84-14.33 1.37-31.4 5.2-31.4 25.48 0 6.45 2.24 12.09 6.47 16.25 5.14 5.07 12.87 7.84 21.81 7.84 11.8 0 18.63-2.92 24.71-9.61l.96 7.47h19.04v-3.02c-2.46-1.91-1.9-9.89-1.9-9.89v-45.88zm-51.4 36.2c-.51-6.05 3.05-10.39 12.4-11.98 2.44-.49 4.98-.7 7.41-1.07 3.7-.54 8.12-1.56 11.88-4.06v12.34c0 9.98-10.07 13.71-17.42 13.6-7.37-.11-13.72-2.77-14.27-8.83"/></g></g></g></g></svg>